<svg width="114" height="123" viewBox="0 0 114 123" fill="none" xmlns="http://www.w3.org/2000/svg">
<rect y="42.5941" width="50.0347" height="33.3564" fill="white"/>
<rect y="88.9225" width="50.0347" height="33.3564" fill="white"/>
<path d="M48.4974 13.0615C51.3024 13.0615 53.7178 13.7238 55.7436 15.0484C57.7694 16.3729 59.3277 18.1975 60.4185 20.522C61.5094 22.8465 62.0548 25.5021 62.0548 28.4889C62.0548 31.5276 61.4964 34.2092 60.3796 36.5337C59.2498 38.8712 57.6785 40.6957 55.6657 42.0073C53.6399 43.3319 51.2764 43.9941 48.5753 43.9941C46.4716 43.9941 44.5756 43.6046 42.8875 42.8254C41.1993 42.0462 39.8163 40.9554 38.7384 39.5529C37.6606 38.1505 36.9918 36.5142 36.7321 34.6442H41.3291C41.6798 36.0078 42.4589 37.2155 43.6666 38.2673C44.8613 39.3322 46.4716 39.8646 48.4974 39.8646C50.2895 39.8646 51.8608 39.3971 53.2113 38.4621C54.5489 37.5401 55.5943 36.235 56.3474 34.5468C57.0876 32.8716 57.4577 30.9043 57.4577 28.6447C57.4577 26.3332 57.0941 24.3204 56.3669 22.6062C55.6267 20.8921 54.5878 19.561 53.2503 18.613C51.8997 17.6651 50.3154 17.1911 48.4974 17.1911C47.3027 17.1911 46.2184 17.3988 45.2444 17.8144C44.2705 18.2299 43.4459 18.8273 42.7706 19.6065C42.0953 20.3856 41.6148 21.3206 41.3291 22.4114H36.7321C36.9918 20.6453 37.6346 19.0546 38.6605 17.6391C39.6734 16.2366 41.0175 15.1198 42.6927 14.2887C44.3549 13.4706 46.2898 13.0615 48.4974 13.0615Z" fill="#F4C430"/>
<path d="M66.397 40.6233C63.592 40.6233 61.1766 39.961 59.1508 38.6365C57.125 37.3119 55.5667 35.4874 54.4759 33.1629C53.3851 30.8384 52.8396 28.1827 52.8396 25.196C52.8396 22.1572 53.398 19.4756 54.5148 17.1511C55.6446 14.8137 57.2159 12.9891 59.2287 11.6776C61.2546 10.353 63.618 9.6907 66.3191 9.6907C68.4228 9.6907 70.3188 10.0803 72.007 10.8594C73.6951 11.6386 75.0782 12.7294 76.156 14.1319C77.2338 15.5344 77.9026 17.1706 78.1623 19.0406H73.5653C73.2147 17.6771 72.4355 16.4694 71.2278 15.4175C70.0331 14.3527 68.4228 13.8202 66.397 13.8202C64.605 13.8202 63.0336 14.2877 61.6831 15.2227C60.3455 16.1447 59.3002 17.4498 58.547 19.138C57.8068 20.8132 57.4367 22.7806 57.4367 25.0401C57.4367 27.3516 57.8003 29.3645 58.5275 31.0786C59.2677 32.7928 60.3066 34.1238 61.6441 35.0718C62.9947 36.0198 64.579 36.4938 66.397 36.4938C67.5917 36.4938 68.6761 36.286 69.65 35.8705C70.624 35.4549 71.4486 34.8575 72.1238 34.0784C72.7991 33.2992 73.2796 32.3642 73.5653 31.2734H78.1623C77.9026 33.0395 77.2598 34.6303 76.2339 36.0458C75.221 37.4483 73.8769 38.565 72.2018 39.3962C70.5395 40.2143 68.6046 40.6233 66.397 40.6233Z" fill="#F4C430"/>
<rect x="63.0066" y="88.9225" width="50.0347" height="33.3564" fill="white"/>
<rect x="63" y="43" width="50.0347" height="33.3564" fill="white"/>
</svg>
