<svg width="945" height="915" viewBox="0 0 945 915" fill="none" xmlns="http://www.w3.org/2000/svg">
<rect x="254.231" y="34.1133" width="626.41" height="419.189" rx="16.5" transform="rotate(50 254.231 34.1133)" fill="#FFD700" stroke="black" stroke-width="3"/>
<line y1="-1.5" x2="354.123" y2="-1.5" transform="matrix(0.998222 0.0596062 0.0862887 0.99627 295.475 498.628)" stroke="black" stroke-width="3"/>
<path d="M293.603 500.198C295.2 401.98 293.514 399.971 199.642 388.221" stroke="black" stroke-width="3"/>
<line y1="-1.5" x2="289.72" y2="-1.5" transform="matrix(0.961847 0.273586 -0.131784 0.991278 -79.0243 308.957)" stroke="black" stroke-width="3"/>
<line y1="-1.5" x2="292.664" y2="-1.5" transform="matrix(0.109169 0.994023 -0.999385 -0.0350496 293.603 500.198)" stroke="black" stroke-width="3"/>
<line y1="-1.5" x2="351.694" y2="-1.5" transform="matrix(-0.121915 0.99254 -0.964351 -0.264625 244.391 37.5791)" stroke="black" stroke-width="3"/>
<path d="M648.609 512.459L249.67 37.0223L709.909 55.9293L648.609 512.459Z" fill="#FFD700" stroke="black" stroke-width="3"/>
<line x1="244.775" y1="37.2577" x2="649.352" y2="519.414" stroke="black"/>
<path d="M583.365 513.694L291.199 496.584L294.348 411.06L294.378 410.258L293.602 410.055L197.303 384.802L229.159 126.697L270.945 91.6345L763.699 339.387L583.365 513.694Z" fill="white" stroke="black" stroke-width="2"/>
<path d="M343.449 186.412C340.858 188.137 338.665 189.753 336.87 191.259C336.487 191.581 336.101 191.741 335.713 191.74C335.313 191.75 334.967 191.581 334.676 191.234C334.435 190.946 334.666 190.212 335.368 189.032C336.492 187.211 338.794 184.291 342.273 180.27C343.445 178.919 344.688 177.509 346.004 176.038L348.108 173.66C345.339 175.392 343.243 176.722 341.82 177.651C340.419 178.582 338.783 179.72 336.913 181.065C334.927 182.466 333.091 183.875 331.403 185.291C331.14 185.512 330.811 185.594 330.417 185.537C330.02 185.503 329.712 185.354 329.491 185.09C328.737 184.193 329.294 182.961 331.162 181.394C331.892 180.781 333.979 178.601 337.423 174.855C340.88 171.098 344.227 167.381 347.465 163.705C350.714 160.041 352.478 157.939 352.759 157.397C353.596 157.205 354.246 157.383 354.708 157.934C355.2 158.52 354.367 160.117 352.21 162.723C350.042 165.317 347.285 168.303 343.939 171.682L343.392 172.233C340.378 175.252 338.857 176.782 338.831 176.824L342.254 174.595C343.937 173.489 345.438 172.495 346.757 171.612C348.098 170.731 349.443 169.817 350.79 168.87C352.195 167.895 353.287 167.081 354.065 166.429L354.765 165.841C355.028 165.62 355.365 165.511 355.775 165.514C356.197 165.506 356.509 165.622 356.71 165.861C357.443 166.735 357.45 167.473 356.732 168.076L356.175 168.543C354.787 169.708 353.4 171.106 352.015 172.737C350.641 174.381 349.065 176.417 347.289 178.845C345.865 180.795 344.572 182.451 343.41 183.813C344.58 182.995 346.744 181.587 349.902 179.59C353.024 177.622 355.666 175.885 357.828 174.377C359.999 172.881 361.965 171.395 363.724 169.919C364.287 169.447 364.757 169.205 365.135 169.194C365.535 169.185 365.951 169.437 366.383 169.952C366.634 170.251 366.754 170.6 366.741 170.998C366.74 171.386 366.602 171.696 366.327 171.927C366.016 172.188 365.629 172.298 365.167 172.258C363.383 173.754 361.191 175.359 358.59 177.072C356.011 178.788 353.496 180.348 351.044 181.752C348.594 183.135 346.062 184.688 343.449 186.412ZM354.67 197.159C352.781 198.846 351.508 199.965 350.849 200.518L349.754 201.437L349.233 201.873C349.068 201.992 348.895 202.127 348.716 202.277L349.122 202.762C349.263 202.93 349.405 203.086 349.547 203.232C349.69 203.377 349.856 203.564 350.047 203.791C350.891 204.797 351.007 205.555 350.397 206.068C350.086 206.329 349.711 206.429 349.273 206.369C348.856 206.31 348.513 206.119 348.241 205.796L346.886 204.18C345.921 203.031 345.348 202.299 345.165 201.983L344.752 201.565C344.019 200.691 343.928 200.023 344.478 199.561C344.694 199.38 344.963 199.276 345.287 199.249C345.623 199.212 345.858 199.26 345.99 199.394L346.864 200.435L347.127 200.275L347.409 200.1C348.39 199.277 349.66 198.14 351.217 196.69C352.775 195.24 354.039 194.109 355.008 193.295C355.93 192.522 357.324 191.413 359.192 189.968C361.253 188.341 362.643 187.226 363.361 186.623C364.809 185.408 366.076 184.243 367.16 183.129L366.573 182.429C366.452 182.285 366.331 182.153 366.208 182.031C366.086 181.909 365.959 181.771 365.829 181.615C365.507 181.232 365.338 180.885 365.321 180.573C365.304 180.261 365.481 179.949 365.852 179.638C366.414 179.165 367.203 179.534 368.217 180.743L371.893 185.124C372.335 185.65 372.58 186.088 372.627 186.436C372.66 186.816 372.575 187.091 372.372 187.262C372.144 187.452 371.844 187.521 371.472 187.466C371.1 187.411 370.798 187.246 370.567 186.971L368.985 185.085C367.988 186.085 366.892 187.087 365.695 188.092C365.096 188.594 363.904 189.543 362.118 190.94C360.502 192.173 359.299 193.122 358.509 193.785C357.838 194.347 356.559 195.472 354.67 197.159ZM358.477 214.494L359.847 213.283L361.149 212.282C361.356 211.945 363.901 209.484 368.782 204.898C373.676 200.302 376.79 197.414 378.125 196.233C376.976 194.79 376.363 193.744 376.287 193.094C376.243 192.702 376.347 192.401 376.599 192.19C376.814 192.009 377.105 191.979 377.472 192.1C377.838 192.221 378.137 192.419 378.368 192.694C378.83 193.244 379.474 194.122 380.3 195.325C381.075 196.491 381.713 197.373 382.215 197.971C382.305 198.079 382.392 198.17 382.474 198.244L382.73 198.549C383.373 199.315 383.401 199.944 382.814 200.436C382.527 200.677 382.182 200.752 381.78 200.662C381.388 200.583 381.056 200.382 380.785 200.059C380.574 199.808 380.349 199.455 380.112 199.002L379.62 198.16L379.428 198.26L379.183 198.405C376.789 200.414 373.482 203.535 369.263 207.768C365.044 212.002 361.732 215.128 359.326 217.147C359.039 217.388 358.671 217.472 358.223 217.399C357.796 217.329 357.448 217.132 357.176 216.809L357.089 215.72L358.477 214.494ZM377.004 224.067L378.689 222.684L378.832 222.563C378.964 222.453 379.083 222.363 379.189 222.295C379.592 221.997 379.841 221.808 379.937 221.728C379.973 221.698 380.002 221.612 380.026 221.47C380.038 221.338 380.061 221.257 380.097 221.226L380.133 221.196C379.935 221.057 379.725 220.856 379.504 220.592C379.283 220.329 379.005 219.889 378.671 219.272C378.365 218.713 378.094 218.267 377.856 217.936L373.637 221.476C372.979 222.029 372.004 222.908 370.711 224.115C369.431 225.312 368.45 226.196 367.767 226.769C367.396 227.08 366.999 227.251 366.575 227.28C366.173 227.311 365.836 227.166 365.565 226.842C365.153 226.352 365.321 225.64 366.068 224.707C366.757 223.802 367.892 222.687 369.472 221.361C370.154 220.789 371.156 219.978 372.479 218.93C373.79 217.891 374.685 217.171 375.164 216.769C375.403 216.568 375.618 216.398 375.807 216.26L376.328 215.823C376.699 215.511 376.936 215.271 377.04 215.103L377.219 214.952L377.964 214.419L379.494 213.288C380.535 212.414 381.883 211.212 383.536 209.682C385.189 208.152 386.537 206.95 387.578 206.077C387.865 205.836 388.202 205.726 388.588 205.749C388.986 205.762 389.306 205.912 389.547 206.199C390.2 206.977 389.796 207.979 388.336 209.204C387.091 210.248 385.545 211.505 383.697 212.974C381.838 214.453 380.286 215.714 379.041 216.759C379.283 217.29 379.785 218.011 380.549 218.92L381.663 220.249C381.833 220.208 382.014 220.108 382.205 219.947C383.462 218.892 385.139 217.353 387.234 215.329C389.5 213.143 391.171 211.598 392.248 210.694C392.523 210.463 392.836 210.374 393.186 210.427C393.559 210.482 393.865 210.653 394.106 210.94C394.267 211.131 394.407 211.432 394.527 211.842C394.624 212.127 394.677 212.276 394.687 212.288C391.671 214.819 387.121 218.841 381.038 224.353L372.042 232.483C371.707 232.764 371.332 232.865 370.918 232.784C370.503 232.703 370.15 232.489 369.859 232.142C369.156 231.304 370.822 229.193 374.855 225.809L376.468 224.486C376.586 224.407 376.765 224.268 377.004 224.067ZM400.363 244.577C399.908 244.714 399.333 245.074 398.639 245.657L398.19 246.033C397.388 246.706 396.398 247.496 395.221 248.402C394.044 249.308 393.042 250.108 392.216 250.801C390.528 252.217 390.031 253.338 390.724 254.164L391.332 254.816C391.535 255.034 391.777 255.31 392.058 255.645C393.163 256.962 393.357 257.921 392.638 258.524C392.387 258.735 392.076 258.802 391.706 258.725C391.345 258.66 391.022 258.493 390.735 258.224C390.269 257.085 389.493 255.87 388.409 254.577C387.86 254.385 387.395 254.061 387.013 253.606C386.782 253.331 386.702 252.98 386.772 252.554C386.853 252.14 387.043 251.807 387.342 251.556C389.293 249.919 392.1 247.696 395.761 244.889C399.399 242.102 402.199 239.885 404.162 238.238L404.431 238.012C405.843 236.583 406.932 235.547 407.698 234.904C410.02 232.955 411.537 232.406 412.25 233.256C412.461 233.507 412.552 233.798 412.523 234.128C412.505 234.47 412.37 234.747 412.118 234.958C411.771 235.249 411.269 235.599 410.612 236.007C409.955 236.416 409.454 236.765 409.106 237.057C408.125 237.88 406.668 239.134 404.735 240.817C402.814 242.49 401.357 243.743 400.363 244.577ZM421.879 258.404C420.994 259.391 419.965 260.377 418.792 261.361L418.522 261.587L416.47 263.37L414.417 265.154C407.367 271.07 402.471 272.394 399.729 269.126C399.177 268.468 398.872 267.703 398.815 266.833C398.758 265.963 398.947 265.07 399.382 264.155C400.248 262.245 401.499 260.43 403.136 258.71C404.641 257.101 406.154 255.658 407.674 254.383C407.973 254.132 408.223 253.932 408.425 253.783C408.627 253.634 408.853 253.454 409.104 253.243C409.224 253.143 409.269 253.075 409.239 253.039L409.903 252.481C410.094 252.321 410.631 251.891 411.513 251.192C411.896 250.87 412.23 250.6 412.516 250.381C413.184 249.841 413.791 249.372 414.335 248.976C414.89 248.592 415.621 248.102 416.527 247.505C417.258 247.014 417.935 246.619 418.561 246.318C419.198 246.008 419.888 245.725 420.631 245.468C421.273 245.236 421.835 245.152 422.317 245.216C422.811 245.271 423.199 245.465 423.48 245.8C424.304 246.782 424.868 247.818 425.171 248.91C425.475 250.001 425.531 251.076 425.338 252.135C425.14 253.138 424.738 254.179 424.134 255.257C423.539 256.347 422.787 257.396 421.879 258.404ZM423.494 250.776C423.436 250.05 423.17 249.406 422.698 248.843C421.995 248.005 421.056 247.845 419.879 248.363C419.326 248.603 418.801 248.89 418.306 249.224C417.823 249.548 417.277 249.966 416.666 250.478C416.199 250.87 415.809 251.207 415.496 251.49C415.183 251.773 414.859 252.056 414.524 252.337C414.225 252.588 413.631 253.035 412.743 253.678C411.855 254.321 411.267 254.764 410.98 255.005C410.094 255.748 408.824 256.895 407.168 258.448C405.405 260.09 403.817 261.831 402.403 263.67C401.704 264.563 401.234 265.365 400.994 266.076C400.777 266.789 400.824 267.331 401.135 267.702C401.497 268.133 402.002 268.382 402.65 268.45C403.32 268.52 404.057 268.401 404.86 268.094C406.455 267.491 408.031 266.647 409.59 265.563C410.973 264.586 412.108 263.726 412.994 262.983C414.035 262.109 415.406 260.826 417.107 259.134C418.941 257.309 420.289 256.035 421.151 255.312L421.797 254.77C422.376 254.244 422.818 253.628 423.123 252.923C423.441 252.207 423.565 251.492 423.494 250.776ZM420.004 278.885C419.11 279.838 418.522 280.474 418.239 280.794C421.454 279.034 425.92 276.419 431.636 272.949C437.06 269.641 440.415 267.611 441.701 266.859L442.394 267.685C442.575 267.9 442.652 268.162 442.625 268.47C442.62 268.78 442.51 269.026 442.294 269.207C441.432 269.93 440.402 270.61 439.204 271.249C438.028 271.889 436.545 272.613 434.755 273.421C433.253 274.111 432.152 274.658 431.451 275.062C430.762 275.456 429.696 276.167 428.253 277.194C426.609 278.37 425.098 279.414 423.721 280.325C422.343 281.236 420.931 282.105 419.483 282.932C417.86 283.866 416.455 284.453 415.27 284.693C414.106 284.935 413.278 284.763 412.786 284.176L412.77 283.027C415.583 280.666 418.271 277.963 420.833 274.915C423.408 271.857 426.407 267.933 429.832 263.142C430.085 262.787 430.366 262.357 430.677 261.852C431.634 260.294 432.322 259.339 432.741 258.988C432.968 258.797 433.241 258.721 433.559 258.76C433.888 258.811 434.147 258.95 434.338 259.178C434.629 259.525 434.604 260.127 434.263 260.984C433.95 261.778 433.406 262.734 432.631 263.853C431.869 264.962 430.888 266.284 429.689 267.821C428.219 269.666 425.954 272.291 422.895 275.694C422.169 276.507 421.205 277.571 420.004 278.885ZM450.435 280.549C450.638 281.277 450.589 281.766 450.29 282.017C450.039 282.228 449.726 282.317 449.352 282.284C448.989 282.242 448.618 282.115 448.237 281.904C447.664 280.468 447.119 279.344 446.602 278.534C446.118 279.001 445.606 279.461 445.067 279.913C444.349 280.516 443.449 281.23 442.368 282.056C441.025 283.081 440.12 283.789 439.653 284.181L439.169 284.771L439.702 285.333C439.885 285.526 440.092 285.761 440.323 286.036C441.317 287.221 441.479 288.095 440.809 288.657C440.545 288.878 440.217 288.96 439.822 288.904C439.45 288.849 439.123 288.654 438.842 288.319C438.541 287.96 438.273 287.593 438.04 287.217L437.257 286.284C436.383 287.139 435.486 287.953 434.564 288.726C433.678 289.47 432.551 290.375 431.182 291.442C429.48 292.768 428.342 293.672 427.768 294.154C426.391 295.309 425.723 295.911 425.763 295.958L426.826 297.116L428.128 298.594C428.911 299.528 429.004 300.246 428.405 300.748C428.058 301.039 427.664 301.105 427.223 300.944C426.793 300.795 426.392 300.5 426.02 300.057L423.414 296.951C423.133 296.616 422.995 296.221 423.002 295.767C423.006 295.335 423.159 294.982 423.46 294.709L424.43 293.895C424.693 293.674 424.933 293.463 425.151 293.26L425.893 292.576C426.288 292.245 427.047 291.557 428.169 290.513C429.28 289.479 430.039 288.791 430.446 288.449C431.799 287.314 433.623 285.855 435.92 284.07C438.216 282.286 440.041 280.827 441.394 279.692C441.657 279.471 442.152 279.004 442.88 278.291C443.502 277.647 443.987 277.179 444.334 276.888C446.069 275.432 447.369 275.218 448.233 276.247C448.625 276.714 449.039 277.366 449.476 278.203C449.935 279.041 450.255 279.824 450.435 280.549ZM437.273 307.014C437.903 306.913 438.378 307.055 438.7 307.438C439.413 308.288 439.123 309.255 437.83 310.34C437.244 310.832 436.412 311.214 435.335 311.486C434.245 311.767 433.15 311.86 432.05 311.764C430.927 311.666 430.12 311.323 429.627 310.737C429.497 310.581 429.434 310.409 429.44 310.221C429.443 310.055 429.517 309.912 429.66 309.791C429.947 309.55 430.342 309.474 430.845 309.562C431.409 309.578 432.106 309.412 432.935 309.063C433.764 308.714 434.56 308.301 435.322 307.824C436.015 307.386 436.665 307.116 437.273 307.014ZM292.345 250.16C291.822 249.537 291.738 248.914 292.092 248.291L292.128 248.261C292.002 248.183 291.638 248.029 291.037 247.799C290.468 247.583 290.015 247.372 289.679 247.165C289.342 246.958 289.053 246.711 288.812 246.423C288.259 245.765 287.85 245.058 287.583 244.303C287.327 243.56 287.209 242.812 287.231 242.06C287.232 241.405 287.362 240.685 287.619 239.898C287.889 239.1 288.228 238.326 288.638 237.574C288.97 236.949 289.43 236.257 290.017 235.499C290.627 234.743 291.232 234.042 291.832 233.395C292.334 232.852 292.943 232.228 293.659 231.526C294.397 230.825 295.011 230.269 295.502 229.857C295.803 229.584 296.348 229.116 297.138 228.453L298.395 227.398C298.792 227.045 299.272 226.632 299.834 226.16C301.007 225.176 302.305 224.158 303.728 223.107C305.079 222.116 306.526 221.239 308.067 220.476C308.878 220.081 309.621 219.774 310.294 219.556C310.989 219.339 311.706 219.197 312.444 219.128C313.194 219.05 313.89 219.077 314.533 219.211C315.188 219.335 315.837 219.586 316.48 219.964C317.102 220.34 317.679 220.845 318.211 221.479C319.065 222.497 319.144 223.297 318.45 223.879C318.199 224.09 317.909 224.17 317.581 224.119C317.264 224.058 316.996 223.896 316.775 223.633C316.704 223.549 316.589 223.35 316.428 223.037C316.267 222.723 316.146 222.519 316.065 222.423C315.684 221.968 315.194 221.676 314.595 221.546C314.008 221.406 313.34 221.436 312.591 221.637C311.761 221.863 310.961 222.137 310.19 222.458C309.419 222.779 308.61 223.213 307.764 223.76C306.662 224.439 305.769 225.005 305.087 225.455C304.414 225.918 303.69 226.453 302.916 227.062C301.763 227.948 300.582 228.898 299.373 229.913L298.368 230.756C298.022 231.026 297.592 231.376 297.078 231.808C296.336 232.431 295.706 232.969 295.19 233.423C294.683 233.889 294.125 234.439 293.515 235.073C292.833 235.768 292.255 236.416 291.781 237.018C291.329 237.621 290.906 238.272 290.512 238.97C290.094 239.687 289.825 240.362 289.703 240.995C289.581 241.627 289.591 242.272 289.733 242.927C289.864 243.593 290.165 244.207 290.637 244.77C291.551 245.859 292.824 246.331 294.456 246.185C295.26 245.49 296.035 244.737 296.783 243.927C297.54 243.128 297.999 242.508 298.16 242.068L297.606 241.553C297.277 241.258 297.012 240.991 296.811 240.752C296.108 239.914 296.104 239.204 296.798 238.621C297.025 238.43 297.328 238.39 297.707 238.501C298.097 238.602 298.5 238.814 298.915 239.139C299.683 239.739 300.273 240.284 300.685 240.775C301.097 241.265 301.233 241.804 301.093 242.391C300.953 242.977 300.601 243.507 300.039 243.979C299.309 244.591 298.319 245.636 297.07 247.113C295.774 248.608 294.786 249.641 294.103 250.214C293.816 250.455 293.506 250.572 293.174 250.565C292.842 250.558 292.566 250.423 292.345 250.16ZM321.364 251.234C310.484 260.364 303.718 263.349 301.066 260.189C300.574 259.602 300.264 258.965 300.135 258.278C300.007 257.59 300.062 256.901 300.299 256.212C300.551 255.491 300.872 254.804 301.262 254.151C301.664 253.487 302.177 252.811 302.803 252.123C303.896 250.921 305.178 249.702 306.65 248.467C309.532 245.946 312.739 243.204 316.27 240.242C317.12 239.528 318.286 238.499 319.768 237.154L321.395 235.666C322.1 235.461 322.579 235.509 322.83 235.808C323.071 236.095 323.065 236.538 322.813 237.137C322.561 237.736 322.178 238.252 321.663 238.684L311.663 247.075C310.789 247.808 309.566 248.988 307.993 250.614C306.35 252.278 305.121 253.451 304.308 254.134C302.512 255.641 302.267 257.172 303.573 258.728C305.039 260.476 312.362 255.82 325.54 244.762L327.605 243.03L327.928 242.759C328.002 242.676 328.092 242.59 328.2 242.5C328.499 242.249 328.775 242.14 329.027 242.173C329.291 242.196 329.584 242.399 329.906 242.782C330.167 243.093 330.282 243.425 330.251 243.777C330.232 244.119 330.118 244.409 329.909 244.646C329.642 244.911 329.365 245.164 329.077 245.405C328.598 245.806 327.941 246.287 327.105 246.846C326.268 247.405 325.623 247.875 325.168 248.257C324.761 248.598 324.232 249.001 323.581 249.465C322.777 250.038 322.237 250.44 321.962 250.671C321.842 250.772 321.746 250.863 321.672 250.945C321.586 251.038 321.483 251.134 321.364 251.234ZM325.632 272.802C323.825 275.461 322.763 277.076 322.447 277.648C328.053 273.779 334.477 268.807 341.719 262.731C341.886 262.59 342.043 262.449 342.188 262.306L342.661 261.848C343.391 261.236 344.012 261.235 344.525 261.845C344.806 262.18 344.884 262.553 344.759 262.964C344.635 263.374 344.369 263.75 343.962 264.092L341.179 266.427C338.993 268.221 336.365 270.303 333.296 272.674C330.237 275.057 327.455 277.126 324.951 278.881C322.468 280.638 320.934 281.558 320.351 281.64C319.575 281.128 319.111 280.783 318.961 280.603C318.7 280.292 318.587 279.999 318.622 279.725C318.669 279.441 318.849 279.096 319.161 278.691C319.438 278.316 319.617 278.043 319.699 277.873L319.786 277.831L319.875 277.755C320.438 277.283 321.61 275.606 323.393 272.723C325.176 269.84 327.045 266.671 329 263.215C330.965 259.771 332.357 257.226 333.178 255.579L314.667 271.111C314.667 271.111 314.624 271.229 314.536 271.466C314.416 271.832 314.277 272.081 314.122 272.211C313.811 272.472 313.446 272.585 313.028 272.548C312.619 272.523 312.29 272.361 312.039 272.062C311.366 271.26 311.777 270.232 313.274 268.976L319.545 263.652L325.817 258.328C326.583 257.686 327.756 256.762 329.337 255.559C330.929 254.345 332.102 253.422 332.856 252.789C334.005 251.825 335.286 251.515 336.697 251.861L336.464 252.056C336.604 252.102 336.709 252.167 336.78 252.25C337.262 252.825 336.877 254.372 335.625 256.891C334.644 258.857 333.478 260.895 332.129 263.006C330.79 265.13 329.102 267.688 327.065 270.682L325.632 272.802ZM341.059 291.187C339.252 293.846 338.19 295.461 337.874 296.033C343.48 292.164 349.904 287.192 357.146 281.116C357.313 280.975 357.47 280.834 357.615 280.691L358.088 280.233C358.818 279.621 359.439 279.62 359.951 280.23C360.233 280.565 360.311 280.938 360.186 281.349C360.062 281.759 359.796 282.135 359.389 282.477L356.606 284.812C354.419 286.606 351.792 288.688 348.723 291.059C345.664 293.442 342.882 295.511 340.377 297.266C337.895 299.023 336.361 299.943 335.778 300.025C335.002 299.513 334.538 299.168 334.388 298.988C334.126 298.677 334.013 298.384 334.048 298.11C334.096 297.826 334.275 297.481 334.588 297.076C334.865 296.701 335.044 296.428 335.126 296.258L335.212 296.216L335.302 296.14C335.865 295.668 337.037 293.991 338.82 291.108C340.603 288.225 342.472 285.056 344.427 281.6C346.391 278.156 347.784 275.611 348.605 273.964L330.094 289.496C330.094 289.496 330.051 289.614 329.963 289.851C329.842 290.217 329.704 290.466 329.549 290.596C329.237 290.857 328.873 290.97 328.455 290.933C328.046 290.908 327.717 290.747 327.466 290.447C326.793 289.645 327.204 288.617 328.7 287.361L334.972 282.037L341.244 276.714C342.01 276.071 343.183 275.147 344.764 273.944C346.356 272.73 347.529 271.807 348.283 271.174C349.432 270.21 350.713 269.9 352.124 270.246L351.891 270.442C352.031 270.487 352.136 270.552 352.207 270.636C352.689 271.21 352.304 272.757 351.052 275.276C350.07 277.242 348.905 279.28 347.556 281.391C346.217 283.515 344.529 286.073 342.492 289.067L341.059 291.187ZM348.15 313.385C348.928 312.732 350.069 311.551 351.571 309.841L352.241 309.035L349.736 304.956C348.859 305.345 347.552 306.096 345.813 307.208C344.473 308.067 343.482 308.501 342.837 308.511C342.427 308.509 342.097 308.358 341.846 308.059C341.594 307.759 341.464 307.41 341.455 307.01C341.446 306.61 341.578 306.294 341.854 306.063C341.89 306.033 341.965 306.001 342.079 305.966L342.252 305.882C349.96 302.208 357.202 298.223 363.977 293.924C364.544 293.53 365.076 293.155 365.573 292.8C366.533 292.096 367.322 291.566 367.941 291.21C368.572 290.844 369.105 290.641 369.541 290.602L370.581 291.84C370.882 292.2 371.05 292.569 371.083 292.949C371.128 293.319 371.001 293.63 370.702 293.881C368.835 295.447 366.275 298.024 363.022 301.61C359.711 305.224 357.272 307.689 355.704 309.005C355.5 309.176 355.179 309.558 354.738 310.152C354.298 310.745 353.977 311.127 353.773 311.298C353.51 311.519 352.88 312.251 351.884 313.495C350.938 314.677 350.273 315.428 349.89 315.75L349.854 315.78C349.315 316.232 348.798 316.32 348.301 316.043C347.839 315.493 347.582 315.004 347.53 314.578C347.489 314.164 347.696 313.767 348.15 313.385ZM351.221 303.955C351.3 304.583 352.011 305.832 353.356 307.702C353.655 307.328 354.079 306.911 354.63 306.449C355.791 305.475 356.966 304.407 358.154 303.247C359.354 302.077 360.833 300.581 362.589 298.761C363.897 297.378 365.055 296.181 366.064 295.172C358.966 299.231 354.018 302.159 351.221 303.955ZM367.53 314.348C367.075 314.486 366.5 314.846 365.806 315.429L365.357 315.805C364.555 316.478 363.565 317.268 362.388 318.174C361.211 319.08 360.209 319.88 359.383 320.573C357.695 321.989 357.198 323.11 357.891 323.936L358.5 324.588C358.702 324.805 358.944 325.082 359.226 325.417C360.33 326.733 360.524 327.693 359.805 328.296C359.554 328.507 359.243 328.574 358.873 328.497C358.513 328.432 358.189 328.265 357.902 327.996C357.436 326.857 356.661 325.642 355.576 324.349C355.027 324.157 354.562 323.833 354.18 323.378C353.949 323.103 353.869 322.752 353.939 322.326C354.02 321.911 354.21 321.579 354.509 321.328C356.46 319.691 359.267 317.468 362.928 314.661C366.566 311.874 369.366 309.657 371.329 308.01L371.598 307.784C373.01 306.354 374.099 305.318 374.865 304.676C377.187 302.727 378.704 302.178 379.418 303.028C379.628 303.279 379.719 303.57 379.691 303.9C379.672 304.242 379.537 304.519 379.285 304.73C378.938 305.021 378.436 305.371 377.779 305.779C377.123 306.187 376.621 306.537 376.273 306.829C375.292 307.652 373.835 308.905 371.902 310.588C369.981 312.261 368.524 313.515 367.53 314.348ZM382.914 351.861C383.877 352.134 384.48 352.414 384.721 352.701C385.012 353.048 385.128 353.563 385.068 354.246C384.625 354.617 384.144 354.858 383.624 354.968C383.114 355.089 382.615 355.09 382.127 354.97C381.66 354.851 381.184 354.649 380.699 354.362C380.214 354.076 379.771 353.754 379.369 353.398C378.938 353.005 378.572 352.629 378.27 352.27C377.688 351.576 377.317 350.806 377.158 349.96C376.987 349.125 377.006 348.272 377.215 347.403C377.405 346.632 377.774 345.772 378.323 344.822C378.884 343.862 379.526 342.925 380.249 342.012C380.873 341.224 381.659 340.35 382.608 339.391C383.569 338.421 384.524 337.518 385.473 336.68C386.305 335.921 387.26 335.09 388.337 334.186C389.235 333.432 390.018 332.786 390.686 332.245C391.354 331.705 392.048 331.133 392.766 330.531C394.13 329.386 395.332 328.52 396.37 327.935C396.705 327.531 397.058 327.174 397.429 326.863C398.41 326.039 399.483 325.567 400.647 325.447C401.833 325.329 403.001 325.542 404.151 326.087C405.311 326.643 406.353 327.472 407.277 328.573C407.609 328.968 407.862 329.428 408.038 329.954C408.224 330.491 408.285 331.001 408.221 331.483C408.178 331.968 407.983 332.355 407.636 332.647C407.385 332.858 407.096 332.927 406.77 332.854C406.465 332.783 406.193 332.604 405.952 332.316C405.741 332.065 405.562 331.766 405.414 331.421C405.267 331.075 405.229 330.811 405.301 330.629L405.283 330.644L404.861 330.141L404.951 330.066C404.177 329.144 403.347 328.556 402.46 328.301C402.102 328.214 401.703 328.202 401.266 328.263C400.828 328.325 400.408 328.432 400.006 328.585C399.685 328.713 399.283 328.927 398.802 329.229C398.331 329.542 397.923 329.834 397.578 330.103C397.364 330.262 396.964 330.587 396.378 331.079C396.09 331.32 395.681 331.695 395.148 332.203C394.628 332.701 394.224 333.07 393.937 333.311C393.649 333.552 393.179 333.855 392.526 334.219C391.861 334.594 391.385 334.902 391.098 335.143L390.218 335.881C388.973 336.925 387.688 338.055 386.361 339.27C385.604 339.947 384.95 340.577 384.399 341.161C383.859 341.757 383.248 342.463 382.567 343.28C381.983 343.994 381.514 344.663 381.16 345.286C380.816 345.922 380.53 346.601 380.3 347.324C379.872 348.662 380.086 349.839 380.939 350.857C381.291 351.276 381.949 351.61 382.914 351.861ZM393.373 369.795C393.063 369.79 392.808 369.668 392.607 369.429C392.175 368.914 392.355 367.926 393.149 366.465C393.894 365.044 394.877 363.566 396.099 362.031L397.126 360.741C400.037 357.136 401.665 355.005 402.011 354.347L401.635 353.898C400.916 354.501 400.259 355.042 399.663 355.522C399.066 356.003 398.385 356.564 397.619 357.207C394.375 359.929 392.015 362.306 390.54 364.34L389.206 364.756L388.347 363.732L388.479 362.796L390.969 360.768C393.039 359.03 396.3 356.121 400.749 352.041C405.057 348.059 408.318 345.139 410.532 343.281C411.693 342.307 412.615 342.227 413.298 343.041C414.021 343.902 414.514 344.805 414.775 345.748C415.058 346.694 415.072 347.61 414.817 348.497C414.574 349.374 414.046 350.154 413.232 350.837L410.646 353.006C410.299 353.298 409.837 353.573 409.26 353.833C408.682 354.093 408.166 354.292 407.71 354.43L405.794 354.844L404.235 355.174L401.321 358.812C399.771 360.684 398.533 362.283 397.607 363.611C396.694 364.928 395.937 366.226 395.337 367.505L395.066 368.13C394.925 368.472 394.79 368.749 394.661 368.959C394.543 369.16 394.401 369.33 394.233 369.471C393.97 369.692 393.683 369.8 393.373 369.795ZM408.414 351.331C409.368 350.815 410.157 350.296 410.779 349.774C411.234 349.392 411.602 349.053 411.883 348.756C412.176 348.449 412.469 348.081 412.762 347.652C413.044 347.211 413.167 346.761 413.129 346.303C413.114 345.847 412.931 345.398 412.581 344.958L412.321 345.084C412.149 345.147 412.027 345.209 411.955 345.269C410.734 346.293 409.306 347.532 407.671 348.986C406.023 350.45 404.661 351.634 403.584 352.538C404.076 352.737 404.766 352.708 405.654 352.453C406.551 352.21 407.471 351.836 408.414 351.331ZM426.25 360.627C426.452 361.354 426.404 361.844 426.105 362.095C425.853 362.306 425.54 362.395 425.166 362.362C424.804 362.319 424.432 362.192 424.052 361.982C423.479 360.545 422.934 359.422 422.417 358.611C421.932 359.079 421.421 359.539 420.882 359.991C420.164 360.593 419.264 361.308 418.182 362.134C416.839 363.158 415.935 363.867 415.468 364.258L414.984 364.848L415.517 365.411C415.699 365.604 415.906 365.838 416.137 366.114C417.132 367.299 417.294 368.172 416.623 368.735C416.36 368.956 416.031 369.038 415.637 368.981C415.265 368.926 414.938 368.732 414.657 368.396C414.355 368.037 414.088 367.67 413.855 367.295L413.071 366.361C412.198 367.216 411.3 368.031 410.379 368.804C409.493 369.547 408.366 370.452 406.997 371.519C405.295 372.845 404.157 373.75 403.582 374.232C402.206 375.387 401.538 375.988 401.578 376.036L402.641 377.194L403.942 378.672C404.726 379.605 404.818 380.323 404.22 380.825C403.873 381.117 403.479 381.182 403.038 381.022C402.607 380.873 402.206 380.577 401.835 380.134L399.228 377.028C398.947 376.693 398.81 376.298 398.816 375.844C398.821 375.412 398.974 375.06 399.275 374.786L400.244 373.973C400.508 373.752 400.748 373.54 400.965 373.337L401.707 372.654C402.102 372.322 402.861 371.634 403.984 370.59C405.095 369.556 405.854 368.868 406.261 368.527C407.613 367.392 409.438 365.932 411.734 364.148C414.031 362.364 415.856 360.904 417.208 359.769C417.471 359.548 417.967 359.081 418.695 358.369C419.317 357.724 419.801 357.257 420.148 356.965C421.884 355.509 423.184 355.296 424.047 356.325C424.439 356.792 424.853 357.444 425.29 358.28C425.749 359.119 426.069 359.901 426.25 360.627ZM415.221 393.317C415.999 392.664 417.14 391.483 418.642 389.773L419.312 388.967L416.807 384.888C415.93 385.277 414.622 386.028 412.884 387.14C411.544 387.999 410.552 388.433 409.908 388.443C409.498 388.441 409.167 388.29 408.916 387.991C408.665 387.691 408.535 387.342 408.526 386.942C408.516 386.542 408.649 386.226 408.925 385.995C408.961 385.965 409.035 385.933 409.149 385.898L409.323 385.814C417.031 382.14 424.273 378.155 431.048 373.856C431.615 373.462 432.147 373.087 432.644 372.732C433.604 372.028 434.393 371.498 435.012 371.142C435.643 370.776 436.176 370.573 436.612 370.534L437.652 371.772C437.953 372.131 438.12 372.501 438.154 372.881C438.199 373.251 438.072 373.561 437.773 373.813C435.906 375.379 433.346 377.956 430.093 381.542C426.782 385.156 424.343 387.621 422.775 388.937C422.571 389.108 422.249 389.49 421.809 390.084C421.369 390.677 421.047 391.059 420.844 391.23C420.581 391.451 419.951 392.183 418.955 393.427C418.009 394.609 417.344 395.36 416.961 395.682L416.925 395.712C416.386 396.164 415.868 396.251 415.371 395.975C414.909 395.424 414.653 394.936 414.601 394.51C414.56 394.096 414.766 393.698 415.221 393.317ZM418.292 383.887C418.37 384.515 419.082 385.763 420.427 387.633C420.725 387.26 421.15 386.843 421.701 386.381C422.862 385.407 424.036 384.339 425.225 383.179C426.425 382.008 427.904 380.513 429.66 378.693C430.968 377.31 432.126 376.113 433.135 375.104C426.036 379.163 421.089 382.091 418.292 383.887ZM425.166 402.871L426.536 401.66L427.838 400.659C428.045 400.322 430.589 397.861 435.471 393.275C440.365 388.679 443.479 385.791 444.813 384.61C443.664 383.167 443.052 382.121 442.975 381.471C442.932 381.079 443.036 380.778 443.287 380.567C443.503 380.386 443.794 380.356 444.16 380.477C444.527 380.598 444.826 380.796 445.057 381.071C445.519 381.622 446.163 382.499 446.989 383.702C447.763 384.868 448.401 385.75 448.904 386.348C448.994 386.456 449.08 386.547 449.163 386.621L449.419 386.926C450.061 387.692 450.09 388.321 449.503 388.813C449.216 389.054 448.871 389.129 448.469 389.039C448.076 388.96 447.744 388.759 447.473 388.436C447.262 388.185 447.038 387.832 446.8 387.379L446.308 386.537L446.117 386.637L445.871 386.782C443.477 388.791 440.171 391.912 435.952 396.145C431.733 400.379 428.421 403.505 426.015 405.524C425.728 405.765 425.36 405.849 424.911 405.777C424.485 405.706 424.136 405.509 423.865 405.186L423.777 404.097L425.166 402.871ZM442.993 411.318C441.104 413.005 439.83 414.124 439.172 414.677L438.077 415.596L437.556 416.033C437.39 416.151 437.218 416.286 437.038 416.437L437.445 416.921C437.586 417.089 437.727 417.245 437.87 417.391C438.012 417.537 438.179 417.723 438.37 417.951C439.213 418.956 439.33 419.715 438.72 420.227C438.408 420.488 438.034 420.588 437.595 420.528C437.179 420.469 436.835 420.278 436.564 419.955L435.208 418.339C434.244 417.19 433.67 416.458 433.487 416.143L433.075 415.724C432.341 414.85 432.25 414.182 432.801 413.72C433.016 413.539 433.286 413.435 433.61 413.408C433.946 413.371 434.18 413.419 434.313 413.553L435.186 414.594L435.45 414.434L435.731 414.259C436.713 413.436 437.982 412.299 439.54 410.849C441.097 409.4 442.361 408.268 443.331 407.455C444.252 406.681 445.647 405.572 447.514 404.127C449.576 402.5 450.965 401.385 451.683 400.782C453.132 399.567 454.398 398.402 455.483 397.288L454.895 396.588C454.775 396.445 454.653 396.312 454.531 396.19C454.408 396.069 454.282 395.93 454.151 395.774C453.83 395.391 453.66 395.044 453.643 394.732C453.626 394.42 453.803 394.108 454.174 393.797C454.737 393.325 455.525 393.693 456.54 394.902L460.216 399.283C460.658 399.81 460.902 400.247 460.949 400.595C460.983 400.975 460.898 401.25 460.694 401.421C460.467 401.612 460.167 401.68 459.795 401.625C459.422 401.57 459.121 401.405 458.89 401.13L457.308 399.245C456.311 400.244 455.214 401.246 454.017 402.251C453.419 402.753 452.226 403.702 450.441 405.099C448.824 406.333 447.621 407.281 446.831 407.944C446.161 408.506 444.881 409.631 442.993 411.318ZM467.747 421.968C466.862 422.955 465.833 423.941 464.66 424.925L464.391 425.151L462.338 426.935L460.286 428.718C453.236 434.634 448.34 435.958 445.598 432.69C445.045 432.032 444.741 431.268 444.684 430.398C444.627 429.528 444.816 428.635 445.251 427.719C446.117 425.81 447.368 423.995 449.004 422.275C450.509 420.665 452.022 419.223 453.542 417.947C453.841 417.696 454.092 417.496 454.293 417.347C454.495 417.199 454.721 417.019 454.973 416.808C455.092 416.707 455.137 416.639 455.107 416.603L455.771 416.046C455.963 415.885 456.5 415.455 457.381 414.756C457.764 414.435 458.099 414.164 458.384 413.945C459.052 413.405 459.659 412.937 460.204 412.541C460.759 412.157 461.489 411.666 462.395 411.069C463.126 410.578 463.804 410.183 464.429 409.883C465.066 409.572 465.756 409.289 466.5 409.032C467.141 408.8 467.703 408.716 468.185 408.781C468.68 408.835 469.067 409.03 469.349 409.365C470.172 410.346 470.736 411.383 471.04 412.474C471.344 413.565 471.399 414.64 471.207 415.699C471.008 416.702 470.606 417.743 470.002 418.821C469.407 419.912 468.656 420.961 467.747 421.968ZM469.363 414.34C469.304 413.614 469.039 412.97 468.567 412.407C467.864 411.57 466.924 411.41 465.747 411.928C465.194 412.168 464.67 412.455 464.175 412.788C463.692 413.112 463.145 413.53 462.535 414.042C462.068 414.434 461.678 414.772 461.365 415.055C461.051 415.338 460.727 415.62 460.392 415.901C460.093 416.152 459.499 416.599 458.611 417.243C457.723 417.886 457.135 418.328 456.848 418.569C455.962 419.312 454.692 420.46 453.037 422.012C451.274 423.654 449.685 425.395 448.271 427.235C447.572 428.127 447.103 428.929 446.863 429.64C446.645 430.353 446.692 430.895 447.003 431.266C447.365 431.697 447.87 431.946 448.518 432.014C449.189 432.084 449.926 431.965 450.729 431.659C452.323 431.055 453.9 430.211 455.459 429.128C456.842 428.151 457.976 427.291 458.862 426.548C459.903 425.674 461.274 424.391 462.975 422.698C464.809 420.874 466.157 419.6 467.019 418.877L467.666 418.334C468.244 417.808 468.686 417.192 468.992 416.487C469.309 415.772 469.433 415.056 469.363 414.34ZM470.35 445.27C468.542 447.929 467.48 449.544 467.164 450.115C472.771 446.247 479.195 441.275 486.436 435.199C486.604 435.058 486.76 434.916 486.906 434.774L487.379 434.316C488.109 433.703 488.73 433.702 489.242 434.313C489.523 434.648 489.602 435.021 489.477 435.431C489.352 435.842 489.087 436.218 488.68 436.559L485.897 438.894C483.71 440.688 481.082 442.771 478.014 445.142C474.955 447.525 472.173 449.594 469.668 451.349C467.185 453.106 465.652 454.026 465.068 454.108C464.292 453.596 463.829 453.251 463.678 453.071C463.417 452.76 463.304 452.467 463.339 452.193C463.386 451.909 463.566 451.564 463.879 451.159C464.156 450.784 464.335 450.511 464.416 450.341L464.503 450.298L464.593 450.223C465.155 449.751 466.328 448.074 468.111 445.191C469.894 442.308 471.762 439.138 473.717 435.683C475.682 432.239 477.075 429.694 477.896 428.046L459.385 443.579C459.385 443.579 459.341 443.697 459.254 443.933C459.133 444.3 458.995 444.548 458.839 444.679C458.528 444.94 458.163 445.052 457.745 445.016C457.337 444.991 457.007 444.829 456.756 444.53C456.083 443.728 456.495 442.699 457.991 441.444L464.263 436.12L470.535 430.796C471.301 430.153 472.474 429.23 474.054 428.026C475.647 426.813 476.82 425.889 477.574 425.257C478.723 424.292 480.003 423.983 481.415 424.328L481.182 424.524C481.322 424.57 481.427 424.634 481.497 424.718C481.979 425.293 481.595 426.839 480.343 429.358C479.361 431.324 478.196 433.363 476.846 435.474C475.507 437.597 473.819 440.156 471.783 443.15L470.35 445.27ZM494.455 446.031C493.443 446.453 492.631 446.92 492.02 447.432C491.314 448.025 490.681 448.729 490.122 449.545C489.573 450.373 489.15 451.207 488.855 452.046C488.017 454.28 487.31 456.076 486.737 457.434C486.348 458.332 485.784 459.264 485.045 460.231C484.316 461.209 483.485 462.09 482.551 462.874C481.067 464.119 479.362 464.968 477.437 465.421C476.452 465.656 475.488 465.639 474.547 465.368C473.618 465.087 472.826 464.568 472.171 463.812L472.081 463.888C471.772 463.373 471.617 462.86 471.617 462.35C471.605 461.85 471.771 461.415 472.114 461.046L473.089 460.931C473.318 461.351 473.461 461.618 473.518 461.734C473.715 462.14 473.909 462.456 474.1 462.683C474.482 463.138 475.016 463.374 475.702 463.389C476.388 463.405 477.124 463.236 477.909 462.884C479.341 462.233 480.536 461.505 481.493 460.702C482.307 460.019 483.031 459.167 483.663 458.147C484.318 457.128 484.863 456.039 485.297 454.879L485.603 454.041C486.043 452.815 486.445 451.774 486.808 450.919C487.183 450.053 487.646 449.196 488.197 448.345C488.88 447.263 489.718 446.305 490.711 445.471C491.825 444.537 493.155 443.849 494.702 443.408C495.499 443.167 496.257 443.123 496.976 443.274C497.717 443.428 498.323 443.786 498.795 444.348C499.177 444.803 499.38 445.337 499.404 445.949C499.45 446.563 499.269 447.04 498.862 447.382C498.647 447.563 498.398 447.619 498.116 447.55C497.845 447.47 497.61 447.311 497.409 447.072C497.188 446.808 497.044 446.491 496.976 446.119C496.733 445.854 496.385 445.718 495.931 445.711C495.477 445.705 494.985 445.812 494.455 446.031ZM487.004 485.878L517.858 522.648L554.628 491.794L523.774 455.024L487.004 485.878Z" fill="black"/>
<path d="M208.927 423.04L241.089 461.369L215.536 482.81L183.375 444.481L208.927 423.04Z" fill="#0A1D44"/>
<rect x="173.438" y="452.82" width="50.0347" height="33.3564" transform="rotate(50 173.438 452.82)" fill="#0A1D44"/>
<path d="M262.171 440.55C263.974 442.698 265.02 444.974 265.307 447.378C265.594 449.781 265.198 452.148 264.119 454.477C263.039 456.807 261.356 458.932 259.068 460.852C256.74 462.805 254.327 464.101 251.828 464.74C249.311 465.377 246.904 465.346 244.605 464.647C242.288 463.946 240.262 462.562 238.526 460.492C237.173 458.881 236.253 457.178 235.765 455.384C235.277 453.59 235.223 451.829 235.605 450.102C235.986 448.375 236.81 446.811 238.075 445.41L241.03 448.932C240.211 450.077 239.787 451.45 239.757 453.051C239.71 454.651 240.337 456.227 241.639 457.778C242.791 459.151 244.159 460.054 245.743 460.488C247.309 460.92 248.981 460.882 250.758 460.374C252.518 459.864 254.263 458.883 255.993 457.43C257.764 455.945 259.072 454.372 259.918 452.713C260.755 451.044 261.107 449.393 260.974 447.759C260.832 446.115 260.176 444.597 259.008 443.204C258.24 442.289 257.384 441.592 256.439 441.113C255.495 440.634 254.507 440.386 253.476 440.37C252.445 440.353 251.42 440.586 250.401 441.068L247.446 437.547C248.966 436.611 250.598 436.081 252.342 435.957C254.067 435.831 255.787 436.143 257.5 436.892C259.195 437.639 260.752 438.859 262.171 440.55Z" fill="#F4C430"/>
<path d="M252.563 471.978C250.76 469.829 249.715 467.553 249.428 465.15C249.14 462.747 249.536 460.38 250.616 458.05C251.695 455.721 253.379 453.596 255.667 451.676C257.995 449.723 260.408 448.427 262.906 447.788C265.423 447.151 267.831 447.182 270.129 447.881C272.446 448.581 274.473 449.966 276.209 452.035C277.561 453.647 278.482 455.35 278.97 457.144C279.458 458.938 279.511 460.698 279.13 462.425C278.748 464.153 277.925 465.717 276.659 467.118L273.704 463.596C274.523 462.451 274.948 461.078 274.977 459.477C275.025 457.877 274.398 456.301 273.096 454.749C271.944 453.376 270.576 452.473 268.991 452.04C267.425 451.608 265.754 451.646 263.976 452.154C262.217 452.664 260.472 453.645 258.741 455.097C256.97 456.583 255.662 458.155 254.817 459.814C253.979 461.483 253.627 463.135 253.761 464.769C253.903 466.413 254.558 467.931 255.727 469.324C256.495 470.239 257.351 470.936 258.295 471.415C259.24 471.894 260.227 472.141 261.258 472.158C262.289 472.174 263.314 471.941 264.333 471.459L267.288 474.981C265.769 475.917 264.137 476.447 262.393 476.571C260.668 476.697 258.948 476.385 257.235 475.636C255.539 474.888 253.982 473.669 252.563 471.978Z" fill="#F4C430"/>
<path d="M213.937 501.086L246.099 539.414L220.547 560.855L188.385 522.527L213.937 501.086Z" fill="#0A1D44"/>
<rect x="249.112" y="471.562" width="50.0347" height="33.3564" transform="rotate(50 249.112 471.562)" fill="#0A1D44"/>
</svg>
