<svg width="1722" height="1707" viewBox="0 0 1722 1707" fill="none" xmlns="http://www.w3.org/2000/svg">
<rect x="679.096" y="356.964" width="1018.44" height="587.169" rx="16.5" transform="rotate(52 679.096 356.964)" fill="#FFD700" stroke="black" stroke-width="3"/>
<line y1="-1.5" x2="534.138" y2="-1.5" transform="matrix(0.98574 0.168276 0.119396 0.992847 767.117 1076.8)" stroke="black" stroke-width="3"/>
<path d="M764.425 1078.9C761.169 928.613 758.548 925.258 618.376 891.971" stroke="black" stroke-width="3"/>
<line y1="-1.5" x2="450.68" y2="-1.5" transform="matrix(0.928947 0.370213 -0.0924062 0.995722 199.719 725.123)" stroke="black" stroke-width="3"/>
<line y1="-1.5" x2="455.662" y2="-1.5" transform="matrix(0.140793 0.990039 -0.989582 -0.143974 764.425 1078.9)" stroke="black" stroke-width="3"/>
<line y1="-1.5" x2="529.895" y2="-1.5" transform="matrix(-0.0824872 0.996592 -0.932145 -0.362087 664.778 361.779)" stroke="black" stroke-width="3"/>
<path d="M1293.29 1157.21L671.049 360.779L1358.44 465.017L1293.29 1157.21Z" fill="#FFD700" stroke="black" stroke-width="3"/>
<line x1="665.172" y1="361.471" x2="1294.03" y2="1166.38" stroke="black"/>
<path d="M1196.11 1147.31L760.161 1073.4L759.936 942.17L759.935 941.479L759.289 941.235L614.172 886.644L646.777 495.482L707.13 448.329L1454.67 908.949L1196.11 1147.31Z" fill="white" stroke="black" stroke-width="2"/>
<path d="M828.673 585.562C826.023 587.196 823.775 588.734 821.928 590.177C821.534 590.485 821.143 590.632 820.755 590.618C820.355 590.613 820.016 590.432 819.737 590.075C819.506 589.78 819.762 589.054 820.505 587.899C821.692 586.119 824.094 583.28 827.712 579.383C828.93 578.074 830.222 576.708 831.588 575.284L833.774 572.981C830.946 574.615 828.805 575.872 827.35 576.751C825.917 577.632 824.243 578.712 822.327 579.991C820.294 581.322 818.409 582.666 816.673 584.022C816.402 584.234 816.07 584.304 815.678 584.234C815.284 584.185 814.98 584.026 814.769 583.755C814.047 582.831 814.647 581.619 816.568 580.119C817.319 579.532 819.481 577.426 823.054 573.802C826.639 570.168 830.114 566.571 833.479 563.01C836.853 559.461 838.69 557.422 838.989 556.891C839.833 556.727 840.476 556.929 840.918 557.495C841.39 558.098 840.502 559.665 838.254 562.194C835.997 564.711 833.138 567.599 829.677 570.858L829.111 571.39C825.992 574.302 824.42 575.779 824.392 575.82L827.89 573.711C829.611 572.665 831.146 571.723 832.495 570.887C833.866 570.054 835.242 569.187 836.621 568.288C838.059 567.363 839.179 566.587 839.979 565.962L840.699 565.399C840.97 565.188 841.311 565.09 841.72 565.107C842.142 565.115 842.45 565.241 842.642 565.488C843.344 566.386 843.326 567.124 842.587 567.702L842.015 568.149C840.586 569.265 839.152 570.614 837.711 572.195C836.28 573.79 834.634 575.769 832.774 578.135C831.283 580.033 829.933 581.643 828.725 582.964C829.922 582.187 832.134 580.856 835.36 578.97C838.549 577.113 841.25 575.469 843.462 574.037C845.685 572.618 847.701 571.201 849.511 569.787C850.09 569.335 850.568 569.11 850.946 569.112C851.347 569.117 851.753 569.384 852.167 569.913C852.408 570.221 852.515 570.574 852.488 570.971C852.474 571.359 852.325 571.663 852.042 571.885C851.722 572.135 851.331 572.232 850.871 572.175C849.036 573.608 846.789 575.136 844.13 576.757C841.493 578.381 838.925 579.853 836.425 581.171C833.928 582.467 831.344 583.931 828.673 585.562ZM839.512 596.694C837.565 598.314 836.253 599.389 835.576 599.918L834.449 600.798L833.914 601.217C833.744 601.329 833.567 601.458 833.382 601.602L833.772 602.101C833.906 602.273 834.042 602.435 834.18 602.585C834.317 602.736 834.477 602.928 834.66 603.162C835.468 604.196 835.558 604.958 834.93 605.449C834.61 605.699 834.232 605.786 833.796 605.71C833.382 605.637 833.045 605.435 832.785 605.102L831.487 603.44C830.563 602.258 830.016 601.506 829.844 601.184L829.446 600.752C828.744 599.853 828.676 599.182 829.242 598.74C829.464 598.566 829.737 598.472 830.062 598.456C830.399 598.431 830.631 598.487 830.759 598.625L831.596 599.696L831.865 599.546L832.152 599.381C833.162 598.592 834.47 597.5 836.077 596.106C837.685 594.711 838.987 593.624 839.984 592.845C840.932 592.105 842.365 591.045 844.282 589.666C846.398 588.112 847.826 587.046 848.565 586.469C850.055 585.305 851.361 584.185 852.484 583.109L851.921 582.389C851.806 582.241 851.689 582.105 851.571 581.979C851.452 581.853 851.331 581.71 851.206 581.55C850.898 581.156 850.741 580.803 850.735 580.49C850.729 580.178 850.916 579.872 851.298 579.574C851.877 579.122 852.652 579.518 853.624 580.761L857.144 585.268C857.568 585.81 857.797 586.255 857.832 586.605C857.852 586.985 857.757 587.258 857.548 587.421C857.314 587.604 857.012 587.662 856.642 587.594C856.272 587.526 855.976 587.351 855.755 587.067L854.239 585.128C853.208 586.093 852.077 587.056 850.846 588.018C850.23 588.499 849.006 589.406 847.172 590.739C845.514 591.916 844.278 592.822 843.466 593.456C842.776 593.995 841.458 595.074 839.512 596.694ZM842.711 614.152L844.123 612.989L845.459 612.035C845.678 611.705 848.306 609.334 853.345 604.922C858.397 600.499 861.61 597.721 862.984 596.588C861.886 595.106 861.31 594.039 861.257 593.387C861.227 592.994 861.342 592.696 861.6 592.494C861.822 592.321 862.114 592.301 862.476 592.434C862.838 592.568 863.13 592.776 863.351 593.059C863.793 593.626 864.406 594.525 865.19 595.757C865.923 596.949 866.53 597.852 867.011 598.468C867.098 598.579 867.181 598.673 867.261 598.749L867.506 599.063C868.122 599.851 868.128 600.481 867.524 600.952C867.229 601.183 866.882 601.246 866.483 601.141C866.093 601.049 865.769 600.837 865.509 600.504C865.307 600.246 865.095 599.886 864.874 599.424L864.411 598.566L864.216 598.659L863.966 598.795C861.503 600.719 858.09 603.723 853.726 607.807C849.362 611.891 845.942 614.899 843.467 616.833C843.172 617.064 842.801 617.135 842.356 617.047C841.932 616.962 841.59 616.753 841.331 616.42L841.281 615.329L842.711 614.152ZM860.893 624.366L862.625 623.042L862.773 622.927C862.908 622.821 863.03 622.736 863.138 622.671C863.551 622.388 863.807 622.208 863.906 622.131C863.942 622.102 863.975 622.017 864.004 621.876C864.02 621.744 864.046 621.664 864.083 621.635L864.12 621.606C863.927 621.46 863.724 621.251 863.512 620.98C863.301 620.71 863.039 620.26 862.726 619.632C862.44 619.062 862.184 618.608 861.959 618.268L857.618 621.659C856.941 622.188 855.936 623.033 854.602 624.194C853.281 625.346 852.269 626.195 851.568 626.744C851.186 627.042 850.783 627.198 850.358 627.213C849.955 627.23 849.624 627.073 849.364 626.74C848.97 626.236 849.162 625.53 849.941 624.624C850.661 623.744 851.834 622.669 853.459 621.399C854.161 620.851 855.191 620.076 856.55 619.074C857.896 618.081 858.816 617.393 859.308 617.008C859.555 616.816 859.775 616.653 859.969 616.521L860.505 616.103C860.886 615.805 861.132 615.573 861.241 615.409L861.426 615.264L862.189 614.757L863.758 613.68C864.829 612.844 866.217 611.689 867.923 610.218C869.629 608.747 871.017 607.592 872.088 606.755C872.384 606.525 872.724 606.427 873.109 606.463C873.507 606.49 873.821 606.651 874.052 606.946C874.677 607.747 874.239 608.734 872.736 609.907C871.456 610.908 869.867 612.11 867.969 613.513C866.059 614.926 864.464 616.133 863.183 617.133C863.407 617.673 863.884 618.41 864.615 619.346L865.683 620.713C865.854 620.678 866.038 620.584 866.235 620.43C867.528 619.42 869.257 617.94 871.422 615.991C873.762 613.885 875.486 612.399 876.594 611.533C876.877 611.312 877.193 611.234 877.541 611.299C877.912 611.366 878.212 611.548 878.443 611.844C878.597 612.041 878.726 612.346 878.831 612.76C878.918 613.049 878.967 613.199 878.976 613.211C875.873 615.636 871.186 619.496 864.914 624.793L855.64 632.604C855.295 632.873 854.917 632.96 854.506 632.865C854.095 632.77 853.75 632.544 853.471 632.187C852.797 631.325 854.535 629.273 858.685 626.031L860.343 624.766C860.463 624.691 860.647 624.558 860.893 624.366ZM883.522 645.678C883.062 645.8 882.475 646.139 881.761 646.697L881.299 647.058C880.474 647.703 879.457 648.457 878.249 649.322C877.041 650.187 876.012 650.951 875.163 651.614C873.427 652.971 872.89 654.074 873.554 654.923L874.139 655.596C874.335 655.821 874.567 656.105 874.836 656.45C875.894 657.804 876.054 658.77 875.315 659.347C875.057 659.549 874.744 659.606 874.376 659.516C874.018 659.439 873.701 659.26 873.423 658.981C872.997 657.827 872.265 656.585 871.226 655.255C870.684 655.044 870.23 654.705 869.865 654.237C869.644 653.953 869.576 653.6 869.661 653.176C869.756 652.765 869.958 652.439 870.265 652.199C872.272 650.631 875.154 648.508 878.912 645.83C882.644 643.172 885.52 641.053 887.54 639.476L887.817 639.259C889.277 637.88 890.402 636.883 891.19 636.267C893.578 634.401 895.114 633.905 895.797 634.779C895.999 635.038 896.08 635.332 896.04 635.661C896.009 636.002 895.864 636.274 895.606 636.476C895.248 636.754 894.735 637.087 894.064 637.472C893.393 637.857 892.879 638.189 892.522 638.468C891.513 639.257 890.013 640.458 888.022 642.073C886.044 643.678 884.544 644.88 883.522 645.678ZM904.542 660.248C903.623 661.203 902.56 662.153 901.354 663.095L901.077 663.312L898.963 665.023L896.849 666.733C889.597 672.399 884.658 673.552 882.032 670.19C881.503 669.513 881.225 668.739 881.198 667.867C881.172 666.996 881.392 666.11 881.859 665.21C882.791 663.332 884.104 661.562 885.8 659.9C887.36 658.344 888.922 656.955 890.486 655.733C890.794 655.493 891.051 655.302 891.258 655.16C891.464 655.019 891.697 654.847 891.955 654.645C892.078 654.549 892.126 654.482 892.097 654.445L892.78 653.911C892.977 653.757 893.529 653.346 894.434 652.678C894.828 652.371 895.172 652.112 895.464 651.903C896.151 651.386 896.774 650.94 897.332 650.563C897.9 650.199 898.647 649.734 899.574 649.168C900.321 648.704 901.012 648.332 901.648 648.054C902.295 647.766 902.995 647.507 903.747 647.276C904.396 647.067 904.96 647.002 905.44 647.084C905.932 647.155 906.313 647.363 906.582 647.708C907.371 648.718 907.898 649.773 908.164 650.874C908.429 651.976 908.447 653.052 908.218 654.104C907.985 655.099 907.547 656.125 906.905 657.182C906.273 658.251 905.485 659.273 904.542 660.248ZM906.423 652.681C906.389 651.953 906.147 651.3 905.695 650.721C905.021 649.86 904.088 649.667 902.894 650.144C902.332 650.364 901.798 650.633 901.292 650.949C900.798 651.256 900.237 651.654 899.609 652.145C899.129 652.52 898.727 652.844 898.405 653.116C898.082 653.388 897.748 653.658 897.403 653.928C897.095 654.168 896.487 654.594 895.577 655.206C894.667 655.818 894.064 656.239 893.768 656.47C892.857 657.182 891.547 658.285 889.839 659.778C888.02 661.358 886.371 663.042 884.894 664.831C884.164 665.699 883.667 666.484 883.403 667.186C883.16 667.891 883.188 668.434 883.486 668.816C883.833 669.259 884.329 669.526 884.974 669.617C885.642 669.71 886.382 669.617 887.196 669.338C888.81 668.791 890.415 668.003 892.011 666.974C893.427 666.046 894.591 665.226 895.502 664.514C896.573 663.677 897.988 662.443 899.747 660.811C901.644 659.051 903.036 657.825 903.922 657.133L904.587 656.613C905.184 656.108 905.647 655.508 905.977 654.814C906.319 654.11 906.468 653.399 906.423 652.681ZM901.953 680.651C901.027 681.573 900.417 682.188 900.123 682.497C903.398 680.851 907.952 678.393 913.785 675.124C919.322 672.008 922.746 670.097 924.057 669.39L924.721 670.239C924.894 670.461 924.962 670.725 924.924 671.032C924.908 671.342 924.79 671.583 924.568 671.756C923.681 672.449 922.628 673.093 921.409 673.689C920.211 674.288 918.703 674.96 916.887 675.706C915.361 676.342 914.241 676.85 913.527 677.23C912.825 677.6 911.735 678.273 910.257 679.25C908.572 680.367 907.026 681.357 905.618 682.22C904.209 683.082 902.767 683.901 901.292 684.677C899.637 685.554 898.213 686.092 897.02 686.29C895.848 686.491 895.027 686.29 894.556 685.687L894.58 684.538C897.473 682.277 900.254 679.669 902.921 676.713C905.6 673.747 908.735 669.929 912.325 665.261C912.59 664.915 912.887 664.495 913.214 664.001C914.225 662.477 914.946 661.547 915.377 661.211C915.611 661.028 915.886 660.962 916.203 661.012C916.529 661.074 916.784 661.222 916.966 661.456C917.245 661.813 917.199 662.414 916.829 663.259C916.488 664.041 915.911 664.977 915.098 666.069C914.297 667.15 913.271 668.438 912.019 669.932C910.485 671.725 908.13 674.269 904.954 677.563C904.2 678.35 903.2 679.379 901.953 680.651ZM932.308 683.376C932.485 684.111 932.42 684.598 932.112 684.838C931.853 685.04 931.538 685.118 931.165 685.073C930.804 685.017 930.437 684.878 930.064 684.654C929.541 683.198 929.036 682.056 928.548 681.228C928.047 681.679 927.52 682.121 926.966 682.553C926.227 683.131 925.303 683.813 924.193 684.601C922.815 685.578 921.886 686.254 921.406 686.63L920.902 687.202L921.415 687.783C921.591 687.982 921.789 688.224 922.01 688.507C922.963 689.726 923.094 690.605 922.405 691.144C922.134 691.355 921.802 691.426 921.41 691.355C921.04 691.288 920.72 691.081 920.451 690.737C920.162 690.367 919.908 689.991 919.688 689.608L918.937 688.647C918.035 689.472 917.109 690.254 916.161 690.995C915.25 691.707 914.092 692.572 912.687 693.59C910.94 694.856 909.771 695.72 909.18 696.182C907.764 697.288 907.075 697.866 907.113 697.915L908.135 699.109L909.384 700.632C910.135 701.592 910.202 702.313 909.587 702.794C909.229 703.073 908.834 703.124 908.399 702.949C907.974 702.785 907.583 702.476 907.227 702.02L904.731 698.825C904.461 698.48 904.338 698.081 904.36 697.627C904.38 697.196 904.545 696.848 904.855 696.586L905.853 695.807C906.124 695.595 906.371 695.392 906.596 695.197L907.361 694.539C907.767 694.222 908.55 693.561 909.708 692.557C910.854 691.562 911.637 690.901 912.055 690.574C913.447 689.487 915.321 688.092 917.679 686.389C920.036 684.686 921.911 683.291 923.302 682.204C923.573 681.992 924.084 681.543 924.837 680.856C925.481 680.234 925.981 679.783 926.338 679.504C928.124 678.109 929.43 677.941 930.257 679C930.632 679.481 931.024 680.146 931.431 680.998C931.861 681.852 932.153 682.645 932.308 683.376ZM918.23 709.365C918.863 709.287 919.334 709.445 919.642 709.839C920.325 710.713 920.001 711.67 918.671 712.709C918.068 713.18 917.223 713.533 916.137 713.767C915.039 714.01 913.941 714.065 912.844 713.93C911.726 713.793 910.931 713.423 910.459 712.819C910.334 712.659 910.278 712.485 910.29 712.298C910.299 712.132 910.377 711.991 910.525 711.876C910.821 711.645 911.218 711.582 911.717 711.688C912.28 711.724 912.982 711.582 913.823 711.262C914.664 710.942 915.474 710.557 916.252 710.108C916.96 709.694 917.619 709.446 918.23 709.365ZM775.374 647.488C774.874 646.848 774.812 646.222 775.187 645.612L775.224 645.583C775.101 645.501 774.743 645.334 774.15 645.084C773.589 644.848 773.144 644.621 772.815 644.402C772.485 644.183 772.205 643.926 771.974 643.631C771.445 642.954 771.06 642.233 770.82 641.469C770.59 640.717 770.498 639.966 770.546 639.214C770.571 638.561 770.725 637.845 771.01 637.067C771.307 636.28 771.673 635.518 772.109 634.781C772.463 634.168 772.946 633.493 773.56 632.755C774.196 632.021 774.825 631.341 775.447 630.716C775.968 630.19 776.598 629.589 777.338 628.911C778.1 628.237 778.733 627.702 779.238 627.308C779.549 627.045 780.11 626.597 780.923 625.962L782.216 624.952C782.625 624.612 783.118 624.217 783.697 623.765C784.904 622.822 786.236 621.85 787.695 620.849C789.08 619.906 790.556 619.08 792.124 618.371C792.948 618.004 793.7 617.724 794.381 617.529C795.084 617.337 795.805 617.22 796.545 617.177C797.297 617.125 797.992 617.177 798.629 617.333C799.279 617.479 799.919 617.753 800.549 618.153C801.157 618.55 801.716 619.075 802.226 619.728C803.043 620.775 803.095 621.577 802.381 622.135C802.123 622.337 801.83 622.407 801.504 622.344C801.19 622.272 800.927 622.101 800.715 621.83C800.648 621.744 800.539 621.541 800.389 621.222C800.239 620.903 800.126 620.695 800.049 620.596C799.683 620.128 799.204 619.819 798.61 619.668C798.028 619.508 797.36 619.515 796.604 619.689C795.767 619.887 794.957 620.132 794.176 620.426C793.394 620.72 792.57 621.125 791.705 621.642C790.58 622.283 789.669 622.817 788.971 623.243C788.282 623.682 787.541 624.192 786.746 624.773C785.562 625.619 784.349 626.527 783.105 627.499L782.071 628.307C781.716 628.564 781.274 628.899 780.745 629.313C779.982 629.909 779.334 630.425 778.802 630.861C778.279 631.309 777.702 631.839 777.07 632.452C776.365 633.122 775.764 633.75 775.27 634.334C774.797 634.922 774.351 635.557 773.933 636.241C773.491 636.943 773.198 637.609 773.054 638.237C772.91 638.865 772.898 639.509 773.017 640.169C773.124 640.839 773.404 641.463 773.856 642.042C774.731 643.162 775.987 643.678 777.623 643.59C778.451 642.923 779.252 642.198 780.027 641.414C780.812 640.642 781.293 640.039 781.468 639.604L780.933 639.07C780.614 638.764 780.359 638.488 780.166 638.242C779.493 637.38 779.513 636.67 780.227 636.112C780.461 635.929 780.766 635.9 781.14 636.024C781.527 636.138 781.922 636.365 782.325 636.703C783.072 637.33 783.643 637.895 784.037 638.4C784.432 638.905 784.549 639.448 784.388 640.029C784.228 640.61 783.858 641.127 783.28 641.579C782.529 642.166 781.503 643.176 780.203 644.608C778.856 646.057 777.832 647.055 777.13 647.603C776.835 647.834 776.521 647.94 776.189 647.922C775.858 647.904 775.586 647.759 775.374 647.488ZM804.338 649.575C793.146 658.319 786.28 661.066 783.741 657.816C783.269 657.212 782.981 656.565 782.877 655.873C782.773 655.181 782.851 654.495 783.113 653.815C783.39 653.103 783.734 652.427 784.147 651.788C784.572 651.139 785.109 650.481 785.758 649.815C786.892 648.652 788.216 647.478 789.73 646.295C792.699 643.877 795.999 641.249 799.631 638.411C800.505 637.728 801.707 636.74 803.234 635.447L804.913 634.017C805.625 633.837 806.101 633.901 806.342 634.209C806.573 634.505 806.552 634.947 806.279 635.537C806.006 636.127 805.605 636.629 805.076 637.042L794.788 645.08C793.89 645.782 792.626 646.918 790.997 648.488C789.297 650.094 788.029 651.224 787.191 651.878C785.344 653.321 785.046 654.842 786.297 656.443C787.701 658.241 795.182 653.844 808.738 643.253L810.862 641.593L811.194 641.333C811.271 641.254 811.365 641.171 811.475 641.084C811.783 640.844 812.063 640.744 812.313 640.786C812.577 640.819 812.862 641.032 813.17 641.426C813.42 641.746 813.524 642.081 813.48 642.432C813.45 642.774 813.326 643.059 813.108 643.288C812.832 643.544 812.546 643.787 812.251 644.018C811.758 644.403 811.084 644.86 810.229 645.389C809.373 645.919 808.712 646.366 808.244 646.732C807.825 647.059 807.283 647.443 806.616 647.884C805.793 648.429 805.239 648.812 804.956 649.033C804.833 649.129 804.733 649.217 804.656 649.297C804.567 649.386 804.461 649.479 804.338 649.575ZM807.851 671.279C805.952 673.873 804.835 675.45 804.499 676.01C810.237 672.34 816.831 667.595 824.28 661.775C824.452 661.64 824.613 661.504 824.764 661.367L825.252 660.926C826.003 660.339 826.624 660.359 827.115 660.987C827.384 661.332 827.449 661.707 827.31 662.113C827.172 662.519 826.893 662.886 826.474 663.213L823.611 665.45C821.364 667.166 818.665 669.156 815.515 671.418C812.375 673.693 809.523 675.664 806.958 677.33C804.416 678.999 802.851 679.865 802.265 679.926C801.507 679.388 801.056 679.027 800.912 678.842C800.662 678.522 800.559 678.225 800.604 677.953C800.66 677.67 800.852 677.332 801.179 676.938C801.469 676.573 801.657 676.306 801.745 676.139L801.833 676.1L801.925 676.028C802.504 675.576 803.734 673.94 805.617 671.121C807.499 668.302 809.477 665.2 811.551 661.815C813.635 658.442 815.116 655.946 815.994 654.329L796.952 669.206C796.952 669.206 796.904 669.322 796.809 669.555C796.676 669.918 796.529 670.161 796.369 670.286C796.049 670.536 795.68 670.636 795.263 670.585C794.856 670.546 794.533 670.372 794.292 670.065C793.648 669.24 794.095 668.226 795.634 667.023L802.088 661.922L808.541 656.82C809.329 656.204 810.534 655.323 812.156 654.175C813.789 653.017 814.994 652.136 815.77 651.53C816.952 650.606 818.242 650.342 819.641 650.736L819.401 650.923C819.539 650.974 819.642 651.042 819.709 651.128C820.171 651.719 819.733 653.252 818.394 655.726C817.344 657.656 816.108 659.653 814.686 661.715C813.274 663.791 811.497 666.289 809.358 669.209L807.851 671.279ZM822.627 690.191C820.728 692.785 819.611 694.362 819.275 694.922C825.013 691.252 831.606 686.507 839.056 680.687C839.228 680.552 839.389 680.416 839.54 680.279L840.028 679.838C840.779 679.251 841.4 679.272 841.891 679.9C842.16 680.244 842.225 680.62 842.086 681.026C841.947 681.432 841.669 681.798 841.25 682.125L838.387 684.362C836.139 686.078 833.441 688.068 830.291 690.33C827.151 692.605 824.299 694.576 821.734 696.243C819.191 697.912 817.627 698.777 817.041 698.839C816.283 698.3 815.832 697.939 815.688 697.754C815.438 697.434 815.335 697.138 815.379 696.865C815.436 696.582 815.628 696.244 815.955 695.85C816.245 695.485 816.433 695.219 816.52 695.051L816.609 695.012L816.701 694.94C817.28 694.488 818.51 692.852 820.393 690.033C822.275 687.214 824.253 684.112 826.327 680.727C828.411 677.354 829.892 674.859 830.77 673.241L811.728 688.118C811.728 688.118 811.68 688.235 811.585 688.468C811.451 688.83 811.305 689.073 811.145 689.198C810.824 689.449 810.456 689.548 810.039 689.497C809.632 689.458 809.308 689.285 809.068 688.977C808.423 688.152 808.871 687.138 810.41 685.936L816.864 680.834L823.317 675.732C824.105 675.117 825.31 674.235 826.931 673.087C828.565 671.93 829.77 671.048 830.546 670.442C831.728 669.518 833.018 669.254 834.417 669.648L834.177 669.836C834.315 669.886 834.418 669.954 834.485 670.041C834.947 670.632 834.508 672.164 833.169 674.638C832.12 676.568 830.884 678.565 829.462 680.628C828.049 682.703 826.273 685.201 824.134 688.122L822.627 690.191ZM828.94 712.622C829.74 711.997 830.921 710.856 832.482 709.2L833.179 708.418L830.819 704.254C829.929 704.612 828.596 705.317 826.819 706.368C825.45 707.179 824.444 707.579 823.8 707.566C823.39 707.55 823.065 707.387 822.825 707.079C822.584 706.772 822.466 706.418 822.471 706.017C822.475 705.617 822.619 705.307 822.902 705.085C822.939 705.056 823.015 705.027 823.13 704.996L823.307 704.918C831.138 701.516 838.515 697.785 845.436 693.726C846.016 693.352 846.561 692.996 847.07 692.658C848.054 691.988 848.861 691.486 849.492 691.152C850.135 690.808 850.676 690.624 851.113 690.6L852.108 691.874C852.397 692.243 852.551 692.618 852.571 692.999C852.604 693.371 852.466 693.677 852.158 693.917C850.237 695.418 847.589 697.903 844.213 701.374C840.778 704.87 838.254 707.249 836.641 708.509C836.432 708.672 836.097 709.043 835.636 709.621C835.176 710.199 834.841 710.57 834.632 710.733C834.361 710.945 833.706 711.655 832.667 712.863C831.68 714.011 830.99 714.739 830.596 715.046L830.559 715.075C830.005 715.508 829.484 715.578 828.997 715.284C828.554 714.718 828.315 714.221 828.278 713.793C828.251 713.378 828.472 712.988 828.94 712.622ZM832.338 703.305C832.394 703.935 833.061 705.208 834.34 707.124C834.652 706.762 835.091 706.359 835.657 705.917C836.852 704.984 838.063 703.958 839.291 702.84C840.531 701.712 842.061 700.269 843.88 698.511C845.235 697.175 846.434 696.019 847.478 695.045C840.242 698.855 835.196 701.608 832.338 703.305ZM848.274 714.262C847.814 714.383 847.227 714.723 846.513 715.281L846.051 715.642C845.226 716.286 844.21 717.041 843.001 717.905C841.793 718.77 840.764 719.534 839.915 720.198C838.179 721.554 837.642 722.657 838.306 723.507L838.891 724.18C839.087 724.404 839.319 724.689 839.588 725.034C840.646 726.388 840.806 727.354 840.067 727.931C839.809 728.133 839.496 728.189 839.128 728.099C838.77 728.022 838.453 727.844 838.175 727.565C837.749 726.411 837.017 725.169 835.978 723.839C835.436 723.628 834.982 723.288 834.617 722.82C834.396 722.537 834.328 722.184 834.413 721.76C834.508 721.349 834.71 721.023 835.017 720.782C837.024 719.214 839.907 717.091 843.664 714.414C847.397 711.755 850.272 709.637 852.292 708.059L852.569 707.843C854.029 706.464 855.154 705.466 855.942 704.851C858.33 702.985 859.866 702.489 860.549 703.363C860.751 703.621 860.832 703.915 860.792 704.244C860.761 704.585 860.616 704.857 860.358 705.059C860.001 705.338 859.487 705.67 858.816 706.055C858.145 706.44 857.631 706.773 857.274 707.051C856.265 707.84 854.765 709.042 852.774 710.657C850.796 712.262 849.296 713.463 848.274 714.262ZM862.339 752.289C863.293 752.595 863.885 752.896 864.115 753.191C864.394 753.548 864.492 754.067 864.409 754.747C863.953 755.103 863.464 755.326 862.94 755.418C862.427 755.522 861.928 755.505 861.444 755.368C860.982 755.233 860.513 755.014 860.038 754.711C859.564 754.408 859.132 754.071 858.743 753.7C858.326 753.293 857.973 752.904 857.684 752.535C857.126 751.821 856.782 751.039 856.653 750.188C856.512 749.347 856.56 748.496 856.8 747.634C857.016 746.871 857.415 746.023 857.997 745.093C858.591 744.153 859.265 743.24 860.02 742.353C860.67 741.587 861.487 740.741 862.468 739.815C863.463 738.879 864.449 738.01 865.427 737.206C866.285 736.476 867.268 735.679 868.376 734.813C869.299 734.091 870.104 733.472 870.791 732.956C871.478 732.439 872.191 731.892 872.929 731.315C874.333 730.218 875.564 729.395 876.622 728.846C876.971 728.455 877.336 728.11 877.718 727.812C878.727 727.023 879.816 726.589 880.983 726.51C882.172 726.433 883.332 726.687 884.463 727.271C885.603 727.867 886.616 728.732 887.501 729.864C887.818 730.271 888.055 730.74 888.213 731.271C888.38 731.815 888.423 732.326 888.342 732.806C888.282 733.289 888.074 733.67 887.717 733.949C887.458 734.151 887.167 734.209 886.844 734.125C886.542 734.044 886.276 733.855 886.045 733.56C885.843 733.301 885.674 732.996 885.539 732.646C885.404 732.295 885.376 732.03 885.453 731.851L885.435 731.865L885.031 731.348L885.123 731.276C884.383 730.328 883.573 729.711 882.696 729.425C882.34 729.326 881.943 729.299 881.503 729.345C881.063 729.391 880.64 729.484 880.233 729.623C879.908 729.739 879.499 729.939 879.008 730.224C878.526 730.521 878.108 730.798 877.753 731.055C877.534 731.207 877.123 731.518 876.52 731.989C876.224 732.22 875.802 732.58 875.252 733.069C874.714 733.549 874.298 733.904 874.002 734.135C873.707 734.366 873.227 734.652 872.561 734.993C871.884 735.344 871.397 735.635 871.102 735.866L870.197 736.573C868.916 737.573 867.592 738.657 866.224 739.825C865.443 740.475 864.767 741.082 864.197 741.647C863.637 742.223 863.001 742.908 862.292 743.7C861.684 744.394 861.192 745.046 860.816 745.656C860.45 746.279 860.14 746.948 859.885 747.663C859.411 748.985 859.583 750.169 860.401 751.216C860.737 751.647 861.384 752.004 862.339 752.289ZM872.166 770.576C871.856 770.561 871.605 770.43 871.413 770.183C870.999 769.654 871.214 768.673 872.058 767.24C872.853 765.846 873.887 764.404 875.161 762.913L876.233 761.659C879.268 758.157 880.97 756.084 881.338 755.439L880.977 754.978C880.239 755.555 879.563 756.073 878.95 756.532C878.337 756.991 877.636 757.528 876.848 758.144C873.512 760.751 871.07 763.045 869.525 765.026L868.177 765.395L867.355 764.342L867.519 763.41L870.078 761.47C872.208 759.806 875.568 757.013 880.157 753.09C884.601 749.261 887.962 746.457 890.24 744.677C891.434 743.744 892.359 743.696 893.013 744.534C893.705 745.42 894.166 746.339 894.394 747.291C894.644 748.246 894.626 749.162 894.34 750.04C894.067 750.908 893.511 751.669 892.674 752.323L890.015 754.401C889.658 754.68 889.186 754.939 888.6 755.179C888.014 755.419 887.491 755.599 887.031 755.721L885.101 756.068L883.531 756.343L880.493 759.877C878.878 761.694 877.585 763.249 876.614 764.544C875.654 765.829 874.853 767.099 874.209 768.356L873.916 768.971C873.763 769.309 873.619 769.58 873.482 769.786C873.358 769.982 873.209 770.148 873.037 770.283C872.766 770.494 872.476 770.592 872.166 770.576ZM887.842 752.648C888.814 752.166 889.62 751.675 890.26 751.175C890.728 750.81 891.108 750.483 891.399 750.196C891.703 749.9 892.008 749.542 892.316 749.123C892.613 748.692 892.752 748.247 892.73 747.788C892.73 747.332 892.564 746.877 892.23 746.424L891.965 746.542C891.791 746.599 891.667 746.656 891.593 746.714C890.337 747.695 888.867 748.883 887.181 750.279C885.484 751.685 884.081 752.821 882.973 753.687C883.458 753.902 884.149 753.898 885.045 753.674C885.95 753.462 886.883 753.12 887.842 752.648ZM905.343 762.561C905.52 763.295 905.454 763.783 905.146 764.023C904.888 764.225 904.572 764.303 904.199 764.257C903.839 764.202 903.472 764.062 903.099 763.838C902.576 762.383 902.071 761.241 901.582 760.413C901.082 760.864 900.554 761.305 900 761.738C899.262 762.315 898.337 762.998 897.228 763.785C895.85 764.763 894.921 765.439 894.441 765.814L893.936 766.387L894.449 766.967C894.625 767.167 894.824 767.409 895.045 767.692C895.997 768.911 896.129 769.79 895.439 770.328C895.168 770.54 894.837 770.611 894.445 770.54C894.075 770.472 893.755 770.266 893.485 769.921C893.197 769.552 892.943 769.176 892.722 768.793L891.972 767.832C891.069 768.656 890.144 769.439 889.196 770.18C888.285 770.891 887.127 771.757 885.722 772.775C883.974 774.041 882.805 774.905 882.214 775.367C880.798 776.473 880.109 777.051 880.148 777.1L881.17 778.294L882.419 779.817C883.169 780.777 883.237 781.498 882.621 781.979C882.264 782.258 881.868 782.309 881.433 782.133C881.008 781.97 880.618 781.66 880.262 781.205L877.765 778.01C877.496 777.665 877.373 777.266 877.395 776.812C877.414 776.38 877.579 776.033 877.89 775.771L878.887 774.992C879.158 774.78 879.406 774.577 879.63 774.381L880.395 773.724C880.802 773.407 881.584 772.746 882.743 771.741C883.889 770.747 884.671 770.086 885.09 769.759C886.481 768.672 888.356 767.277 890.713 765.574C893.071 763.871 894.945 762.476 896.336 761.389C896.607 761.177 897.119 760.728 897.871 760.041C898.515 759.419 899.016 758.968 899.373 758.689C901.158 757.294 902.465 757.126 903.292 758.185C903.667 758.665 904.058 759.331 904.466 760.183C904.895 761.037 905.188 761.83 905.343 762.561ZM893.18 794.846C893.98 794.221 895.161 793.08 896.723 791.424L897.42 790.642L895.059 786.478C894.169 786.836 892.836 787.541 891.059 788.592C889.691 789.403 888.684 789.803 888.04 789.79C887.631 789.774 887.305 789.611 887.065 789.303C886.824 788.996 886.707 788.642 886.711 788.241C886.716 787.841 886.86 787.531 887.143 787.309C887.18 787.28 887.256 787.251 887.371 787.22L887.547 787.142C895.379 783.74 902.755 780.009 909.676 775.95C910.257 775.576 910.801 775.22 911.31 774.882C912.294 774.212 913.102 773.71 913.733 773.376C914.376 773.032 914.916 772.848 915.353 772.824L916.349 774.098C916.637 774.467 916.792 774.842 916.812 775.223C916.844 775.595 916.706 775.901 916.399 776.141C914.478 777.642 911.829 780.127 908.453 783.598C905.019 787.094 902.495 789.473 900.882 790.733C900.672 790.896 900.337 791.267 899.877 791.845C899.416 792.423 899.081 792.794 898.872 792.957C898.601 793.169 897.946 793.879 896.907 795.087C895.921 796.235 895.23 796.963 894.836 797.27L894.799 797.299C894.245 797.732 893.724 797.802 893.237 797.508C892.795 796.942 892.555 796.445 892.519 796.017C892.492 795.602 892.712 795.212 893.18 794.846ZM896.578 785.529C896.634 786.159 897.302 787.432 898.581 789.348C898.892 788.986 899.331 788.583 899.898 788.141C901.092 787.208 902.303 786.182 903.531 785.064C904.772 783.936 906.302 782.493 908.12 780.735C909.476 779.399 910.675 778.243 911.718 777.27C904.483 781.079 899.436 783.832 896.578 785.529ZM902.785 804.742L904.197 803.579L905.533 802.625C905.751 802.295 908.38 799.924 913.419 795.511C918.47 791.089 921.683 788.311 923.058 787.177C921.96 785.696 921.384 784.629 921.331 783.977C921.301 783.583 921.415 783.286 921.674 783.084C921.896 782.911 922.187 782.891 922.55 783.024C922.912 783.158 923.203 783.366 923.425 783.649C923.867 784.216 924.48 785.115 925.264 786.346C925.997 787.538 926.604 788.442 927.085 789.058C927.172 789.169 927.255 789.262 927.334 789.339L927.58 789.653C928.195 790.441 928.202 791.071 927.598 791.542C927.303 791.773 926.955 791.836 926.556 791.731C926.167 791.639 925.842 791.427 925.583 791.094C925.381 790.835 925.169 790.476 924.947 790.014L924.485 789.156L924.29 789.249L924.039 789.385C921.577 791.309 918.164 794.313 913.799 798.397C909.435 802.48 906.016 805.489 903.541 807.423C903.246 807.653 902.875 807.725 902.43 807.637C902.006 807.551 901.664 807.342 901.404 807.01L901.355 805.919L902.785 804.742ZM920.306 813.806C918.36 815.426 917.048 816.5 916.371 817.029L915.244 817.909L914.708 818.328C914.539 818.441 914.362 818.569 914.177 818.713L914.566 819.212C914.701 819.384 914.837 819.546 914.974 819.696C915.112 819.847 915.272 820.039 915.455 820.273C916.263 821.307 916.353 822.07 915.725 822.56C915.405 822.81 915.027 822.898 914.591 822.822C914.177 822.749 913.84 822.546 913.58 822.213L912.281 820.551C911.358 819.369 910.81 818.617 910.638 818.296L910.241 817.863C909.538 816.964 909.47 816.293 910.037 815.851C910.258 815.678 910.532 815.583 910.856 815.567C911.193 815.542 911.426 815.598 911.554 815.736L912.39 816.808L912.659 816.657L912.947 816.492C913.956 815.703 915.265 814.612 916.872 813.217C918.479 811.823 919.782 810.736 920.779 809.957C921.727 809.216 923.159 808.156 925.076 806.777C927.193 805.223 928.621 804.157 929.359 803.58C930.849 802.416 932.156 801.296 933.278 800.221L932.716 799.5C932.6 799.353 932.483 799.216 932.365 799.09C932.247 798.964 932.125 798.821 932 798.661C931.693 798.267 931.536 797.914 931.529 797.601C931.523 797.289 931.711 796.984 932.093 796.686C932.671 796.233 933.447 796.629 934.418 797.873L937.939 802.379C938.362 802.921 938.591 803.366 938.626 803.716C938.646 804.097 938.552 804.369 938.342 804.533C938.109 804.715 937.806 804.773 937.436 804.705C937.066 804.637 936.77 804.462 936.549 804.179L935.034 802.24C934.003 803.204 932.872 804.167 931.64 805.129C931.025 805.61 929.8 806.517 927.967 807.85C926.308 809.027 925.073 809.933 924.26 810.568C923.571 811.106 922.253 812.186 920.306 813.806ZM944.674 825.313C943.755 826.269 942.692 827.218 941.486 828.161L941.209 828.378L939.095 830.088L936.982 831.799C929.729 837.465 924.79 838.617 922.164 835.256C921.635 834.579 921.357 833.804 921.331 832.933C921.304 832.061 921.524 831.176 921.991 830.276C922.923 828.398 924.236 826.628 925.932 824.966C927.492 823.41 929.054 822.021 930.618 820.799C930.926 820.558 931.183 820.367 931.39 820.226C931.596 820.084 931.829 819.912 932.087 819.71C932.211 819.614 932.258 819.548 932.229 819.511L932.912 818.977C933.109 818.823 933.661 818.412 934.566 817.744C934.96 817.436 935.304 817.178 935.597 816.969C936.283 816.452 936.906 816.005 937.464 815.629C938.032 815.264 938.779 814.799 939.706 814.234C940.453 813.769 941.144 813.398 941.78 813.12C942.427 812.832 943.127 812.573 943.879 812.342C944.528 812.132 945.092 812.068 945.572 812.149C946.064 812.221 946.445 812.429 946.714 812.774C947.503 813.783 948.03 814.839 948.296 815.94C948.561 817.041 948.58 818.118 948.35 819.169C948.117 820.165 947.679 821.191 947.037 822.247C946.405 823.316 945.617 824.338 944.674 825.313ZM946.555 817.747C946.522 817.019 946.279 816.366 945.827 815.787C945.153 814.925 944.22 814.733 943.026 815.209C942.464 815.43 941.931 815.698 941.424 816.015C940.93 816.321 940.369 816.72 939.741 817.211C939.261 817.586 938.86 817.909 938.537 818.181C938.214 818.453 937.88 818.724 937.535 818.993C937.228 819.234 936.619 819.66 935.709 820.272C934.799 820.884 934.196 821.305 933.9 821.536C932.989 822.248 931.679 823.35 929.971 824.844C928.152 826.424 926.504 828.108 925.026 829.897C924.296 830.765 923.799 831.55 923.535 832.252C923.292 832.957 923.32 833.5 923.618 833.882C923.965 834.325 924.461 834.592 925.106 834.682C925.774 834.775 926.514 834.683 927.328 834.404C928.942 833.856 930.547 833.068 932.143 832.04C933.559 831.112 934.723 830.292 935.634 829.58C936.706 828.743 938.121 827.509 939.879 825.877C941.776 824.117 943.168 822.891 944.054 822.198L944.719 821.679C945.316 821.173 945.779 820.573 946.109 819.879C946.452 819.175 946.6 818.465 946.555 817.747ZM946.462 848.692C944.563 851.286 943.445 852.863 943.109 853.423C948.847 849.753 955.441 845.008 962.89 839.188C963.062 839.053 963.224 838.917 963.374 838.78L963.863 838.339C964.614 837.752 965.235 837.773 965.725 838.401C965.994 838.745 966.06 839.121 965.921 839.527C965.782 839.933 965.503 840.299 965.085 840.626L962.222 842.863C959.974 844.579 957.275 846.569 954.125 848.831C950.985 851.106 948.133 853.077 945.569 854.744C943.026 856.413 941.461 857.278 940.875 857.34C940.117 856.801 939.666 856.44 939.522 856.255C939.272 855.935 939.169 855.639 939.214 855.366C939.271 855.083 939.463 854.745 939.789 854.351C940.079 853.986 940.268 853.72 940.355 853.552L940.443 853.513L940.536 853.441C941.114 852.989 942.345 851.353 944.227 848.534C946.109 845.715 948.088 842.613 950.162 839.228C952.246 835.855 953.727 833.36 954.604 831.742L935.563 846.619C935.563 846.619 935.515 846.736 935.419 846.969C935.286 847.331 935.139 847.574 934.979 847.699C934.659 847.95 934.291 848.049 933.874 847.998C933.467 847.959 933.143 847.786 932.902 847.478C932.258 846.653 932.705 845.639 934.244 844.437L940.698 839.335L947.152 834.233C947.94 833.618 949.145 832.736 950.766 831.588C952.4 830.431 953.604 829.549 954.38 828.943C955.562 828.019 956.853 827.755 958.251 828.149L958.011 828.337C958.15 828.387 958.253 828.455 958.32 828.542C958.782 829.133 958.343 830.665 957.004 833.139C955.954 835.069 954.719 837.066 953.296 839.129C951.884 841.204 950.108 843.702 947.968 846.623L946.462 848.692ZM970.526 850.294C969.499 850.68 968.672 851.118 968.044 851.609C967.317 852.177 966.66 852.858 966.073 853.655C965.495 854.463 965.044 855.281 964.72 856.11C963.803 858.313 963.035 860.083 962.414 861.42C961.994 862.304 961.398 863.216 960.626 864.156C959.863 865.109 959.002 865.96 958.041 866.711C956.515 867.904 954.781 868.693 952.842 869.078C951.849 869.279 950.886 869.227 949.955 868.924C949.036 868.611 948.263 868.065 947.635 867.286L947.543 867.359C947.251 866.833 947.114 866.315 947.132 865.805C947.138 865.305 947.319 864.877 947.674 864.52L948.653 864.439C948.867 864.866 949.001 865.139 949.053 865.257C949.236 865.669 949.419 865.992 949.602 866.226C949.968 866.693 950.493 866.947 951.178 866.987C951.864 867.026 952.605 866.884 953.402 866.559C954.856 865.958 956.075 865.273 957.06 864.503C957.897 863.849 958.65 863.023 959.318 862.025C960.008 861.03 960.59 859.961 961.064 858.817L961.4 857.99C961.882 856.78 962.32 855.754 962.713 854.912C963.118 854.06 963.611 853.219 964.191 852.388C964.911 851.33 965.782 850.402 966.804 849.603C967.949 848.709 969.302 848.068 970.864 847.681C971.669 847.468 972.428 847.45 973.141 847.626C973.876 847.806 974.47 848.185 974.922 848.763C975.287 849.231 975.472 849.772 975.474 850.384C975.499 850.999 975.302 851.471 974.883 851.798C974.662 851.971 974.411 852.018 974.131 851.939C973.864 851.851 973.634 851.683 973.442 851.437C973.23 851.166 973.097 850.844 973.043 850.47C972.809 850.196 972.466 850.048 972.012 850.026C971.558 850.003 971.063 850.093 970.526 850.294ZM961.689 889.856L991.24 927.681L1029.06 898.129L999.513 860.304L961.689 889.856Z" fill="black"/>
<path d="M651.6 933.236L682.405 972.664L656.119 993.2L625.315 953.772L651.6 933.236Z" fill="#0A1D44"/>
<rect x="615.093" y="961.759" width="50.0347" height="33.3565" transform="rotate(52 615.093 961.759)" fill="#0A1D44"/>
<path d="M704.201 952.593C705.928 954.803 706.893 957.114 707.096 959.526C707.3 961.938 706.821 964.289 705.661 966.58C704.501 968.871 702.744 970.935 700.39 972.774C697.996 974.645 695.539 975.856 693.02 976.407C690.482 976.956 688.077 976.841 685.804 976.062C683.513 975.281 681.536 973.827 679.873 971.698C678.578 970.041 677.718 968.307 677.293 966.497C676.867 964.687 676.875 962.925 677.317 961.212C677.758 959.5 678.636 957.965 679.95 956.609L682.78 960.232C681.921 961.348 681.449 962.705 681.364 964.304C681.26 965.901 681.832 967.498 683.08 969.095C684.183 970.507 685.519 971.457 687.087 971.946C688.637 972.432 690.309 972.452 692.103 972.006C693.879 971.558 695.657 970.639 697.437 969.248C699.259 967.825 700.621 966.299 701.524 964.67C702.419 963.032 702.829 961.394 702.752 959.756C702.668 958.108 702.066 956.568 700.947 955.135C700.211 954.194 699.38 953.467 698.453 952.956C697.526 952.444 696.547 952.162 695.517 952.11C694.488 952.057 693.455 952.254 692.42 952.701L689.589 949.078C691.141 948.195 692.79 947.723 694.537 947.66C696.266 947.594 697.974 947.966 699.66 948.774C701.328 949.58 702.842 950.853 704.201 952.593Z" fill="#F4C430"/>
<path d="M693.502 983.667C691.775 981.456 690.81 979.145 690.606 976.733C690.403 974.322 690.881 971.97 692.041 969.68C693.201 967.389 694.958 965.324 697.312 963.485C699.706 961.615 702.163 960.404 704.683 959.853C707.22 959.304 709.625 959.419 711.898 960.197C714.189 960.978 716.166 962.433 717.829 964.561C719.124 966.219 719.984 967.953 720.41 969.763C720.835 971.573 720.827 973.334 720.385 975.047C719.944 976.76 719.066 978.294 717.753 979.65L714.922 976.028C715.781 974.912 716.253 973.554 716.338 971.955C716.442 970.358 715.87 968.761 714.623 967.165C713.52 965.753 712.184 964.803 710.616 964.314C709.065 963.828 707.393 963.807 705.599 964.253C703.824 964.701 702.045 965.621 700.265 967.012C698.443 968.435 697.081 969.961 696.178 971.589C695.283 973.228 694.874 974.866 694.95 976.504C695.035 978.151 695.637 979.692 696.756 981.124C697.491 982.066 698.323 982.792 699.25 983.304C700.177 983.816 701.155 984.098 702.185 984.15C703.215 984.202 704.247 984.005 705.283 983.559L708.113 987.182C706.561 988.064 704.912 988.537 703.165 988.6C701.436 988.665 699.729 988.294 698.043 987.485C696.374 986.679 694.861 985.406 693.502 983.667Z" fill="#F4C430"/>
<path d="M653.884 1011.41L684.688 1050.84L658.403 1071.37L627.598 1031.94L653.884 1011.41Z" fill="#0A1D44"/>
<rect x="690.067" y="983.131" width="50.0347" height="33.3565" transform="rotate(52 690.067 983.131)" fill="#0A1D44"/>
</svg>
