<svg width="639" height="859" viewBox="0 0 639 859" fill="none" xmlns="http://www.w3.org/2000/svg">
<rect x="-51.7691" y="-21.8867" width="626.41" height="419.189" rx="16.5" transform="rotate(50 -51.7691 -21.8867)" fill="#FFD700" stroke="black" stroke-width="3"/>
<line y1="-1.5" x2="354.123" y2="-1.5" transform="matrix(0.998222 0.0596062 0.0862887 0.99627 -10.5249 442.628)" stroke="black" stroke-width="3"/>
<path d="M-12.3971 444.198C-10.7999 345.98 -12.4863 343.971 -106.358 332.221" stroke="black" stroke-width="3"/>
<line y1="-1.5" x2="292.664" y2="-1.5" transform="matrix(0.109169 0.994023 -0.999385 -0.0350496 -12.3971 444.198)" stroke="black" stroke-width="3"/>
<path d="M342.609 456.459L-56.3296 -18.9777L403.909 -0.0707134L342.609 456.459Z" fill="#FFD700" stroke="black" stroke-width="3"/>
<line x1="-61.2255" y1="-18.7423" x2="343.352" y2="463.414" stroke="black"/>
<path d="M277.365 457.694L-14.8009 440.584L-11.6515 355.06L-11.6216 354.258L-12.3975 354.055L-108.697 328.802L-76.841 70.6972L-35.0549 35.6345L457.699 283.387L277.365 457.694Z" fill="white" stroke="black" stroke-width="2"/>
<path d="M37.4493 130.412C34.8584 132.137 32.6652 133.753 30.8698 135.259C30.4868 135.581 30.1012 135.741 29.7131 135.74C29.313 135.75 28.9674 135.581 28.6761 135.234C28.435 134.946 28.6656 134.212 29.3678 133.032C30.492 131.211 32.7937 128.291 36.2731 124.27C37.4449 122.919 38.6885 121.509 40.0039 120.038L42.1084 117.66C39.3395 119.392 37.2434 120.722 35.8201 121.651C34.4189 122.583 32.7832 123.72 30.9133 125.065C28.9274 126.466 27.0907 127.875 25.403 129.291C25.1396 129.512 24.8108 129.594 24.4165 129.537C24.0203 129.503 23.7117 129.354 23.4907 129.09C22.7375 128.193 23.2944 126.961 25.1617 125.394C25.8918 124.781 27.979 122.601 31.4233 118.855C34.8796 115.098 38.227 111.381 41.4655 107.705C44.714 104.041 46.4784 101.939 46.7586 101.397C47.5962 101.205 48.246 101.383 48.708 101.934C49.2001 102.52 48.3673 104.117 46.2095 106.723C44.0417 109.317 41.285 112.303 37.9395 115.682L37.3922 116.233C34.3775 119.252 32.8573 120.782 32.8314 120.824L36.2539 118.595C37.9366 117.489 39.4377 116.495 40.7571 115.612C42.0985 114.731 43.4428 113.817 44.79 112.87C46.1951 111.895 47.2866 111.081 48.0646 110.429L48.7648 109.841C49.0282 109.62 49.3649 109.511 49.775 109.514C50.1971 109.506 50.5086 109.622 50.7095 109.861C51.4427 110.735 51.4502 111.473 50.732 112.076L50.1754 112.543C48.787 113.708 47.4003 115.106 46.0154 116.737C44.6406 118.381 43.0651 120.417 41.2888 122.845C39.865 124.795 38.5722 126.451 37.4105 127.813C38.58 126.995 40.7439 125.587 43.9021 123.59C47.0243 121.622 49.6662 119.885 51.8277 118.377C53.9993 116.881 55.9648 115.395 57.7243 113.919C58.2869 113.447 58.7572 113.205 59.1353 113.194C59.5354 113.185 59.9513 113.437 60.3832 113.952C60.6343 114.251 60.7535 114.6 60.7409 114.998C60.7402 115.386 60.6022 115.696 60.3269 115.927C60.0157 116.188 59.6289 116.298 59.1667 116.258C57.3832 117.754 55.191 119.359 52.5901 121.072C50.0111 122.788 47.4957 124.348 45.0437 125.752C42.5937 127.135 40.0622 128.688 37.4493 130.412ZM48.6701 141.159C46.7812 142.846 45.5077 143.965 44.8493 144.518L43.7541 145.437L43.2335 145.873C43.0678 145.992 42.8952 146.127 42.7157 146.277L43.1224 146.762C43.2631 146.93 43.4046 147.086 43.5472 147.232C43.6897 147.377 43.8564 147.564 44.0472 147.791C44.8909 148.797 45.0075 149.556 44.397 150.068C44.0858 150.329 43.7111 150.429 43.2727 150.369C42.8564 150.31 42.5127 150.119 42.2415 149.796L40.8856 148.18C39.9214 147.031 39.3478 146.299 39.1646 145.983L38.7521 145.565C38.0189 144.691 37.9276 144.023 38.4782 143.561C38.6937 143.38 38.9634 143.276 39.2874 143.249C39.6234 143.212 39.8576 143.26 39.9901 143.394L40.8639 144.435L41.1274 144.275L41.4089 144.1C42.3904 143.277 43.6599 142.14 45.2175 140.69C46.775 139.24 48.0385 138.109 49.0081 137.295C49.9297 136.522 51.3244 135.413 53.192 133.968C55.2531 132.341 56.6427 131.226 57.3609 130.623C58.8092 129.408 60.0756 128.243 61.1601 127.129L60.5726 126.429C60.4521 126.285 60.3306 126.153 60.2081 126.031C60.0857 125.909 59.9592 125.771 59.8286 125.615C59.5072 125.232 59.338 124.885 59.3209 124.573C59.3039 124.261 59.4809 123.949 59.8519 123.638C60.4145 123.165 61.203 123.534 62.2174 124.743L65.8933 129.124C66.3352 129.65 66.5798 130.088 66.627 130.436C66.6603 130.816 66.5752 131.091 66.3717 131.262C66.1443 131.452 65.8444 131.521 65.4721 131.466C65.0998 131.411 64.7982 131.246 64.5672 130.971L62.9853 129.086C61.9884 130.085 60.8915 131.087 59.6945 132.092C59.0961 132.594 57.9039 133.543 56.1182 134.94C54.5019 136.173 53.2987 137.122 52.5087 137.785C51.8385 138.347 50.5589 139.472 48.6701 141.159ZM52.477 158.494L53.8473 157.283L55.1493 156.282C55.3562 155.945 57.9006 153.484 62.7825 148.898C67.6763 144.302 70.7904 141.414 72.1248 140.233C70.9756 138.79 70.3629 137.744 70.2866 137.094C70.2433 136.702 70.3473 136.401 70.5986 136.19C70.8141 136.009 71.1051 135.979 71.4716 136.1C71.8381 136.221 72.1369 136.419 72.3679 136.694C72.8299 137.244 73.474 138.122 74.3004 139.325C75.0746 140.491 75.7127 141.373 76.2149 141.971C76.3053 142.079 76.3916 142.17 76.4739 142.244L76.73 142.549C77.3728 143.315 77.401 143.944 76.8144 144.436C76.5272 144.677 76.1823 144.752 75.7799 144.662C75.3875 144.583 75.0557 144.382 74.7846 144.059C74.5737 143.808 74.3494 143.455 74.1118 143.002L73.6198 142.16L73.4281 142.26L73.1825 142.405C70.7886 144.414 67.4822 147.535 63.2633 151.768C59.0445 156.002 55.7321 159.128 53.3262 161.147C53.039 161.388 52.6712 161.472 52.2228 161.4C51.7964 161.329 51.4476 161.132 51.1765 160.809L51.0887 159.72L52.477 158.494ZM71.0039 168.067L72.6887 166.684L72.8323 166.563C72.964 166.453 73.0827 166.363 73.1885 166.295C73.5916 165.997 73.8411 165.808 73.9368 165.728C73.9727 165.698 74.0025 165.612 74.026 165.47C74.0375 165.338 74.0613 165.257 74.0972 165.226L74.1331 165.196C73.9346 165.057 73.7248 164.856 73.5039 164.592C73.2829 164.329 73.0053 163.889 72.6711 163.272C72.3651 162.713 72.0936 162.267 71.8564 161.936L67.6371 165.476C66.9788 166.029 66.0035 166.908 64.7112 168.115C63.4309 169.312 62.4496 170.196 61.7674 170.769C61.3963 171.08 60.9988 171.251 60.5747 171.28C60.1727 171.311 59.8361 171.166 59.565 170.842C59.1532 170.352 59.3208 169.64 60.0679 168.707C60.757 167.802 61.8916 166.687 63.4715 165.362C64.1538 164.789 65.1563 163.978 66.4792 162.93C67.79 161.891 68.6848 161.171 69.1636 160.769C69.403 160.568 69.6175 160.398 69.8071 160.26L70.3277 159.823C70.6988 159.511 70.9361 159.271 71.0395 159.103L71.2191 158.952L71.9645 158.419L73.4941 157.288C74.5354 156.414 75.8827 155.212 77.536 153.682C79.1893 152.152 80.5366 150.95 81.578 150.077C81.8653 149.836 82.202 149.726 82.5882 149.749C82.9863 149.762 83.3059 149.912 83.547 150.199C84.1998 150.977 83.7961 151.979 82.3358 153.204C81.091 154.248 79.5448 155.505 77.6972 156.974C75.8377 158.453 74.2855 159.714 73.0407 160.759C73.2826 161.29 73.7852 162.011 74.5485 162.92L75.6633 164.249C75.8332 164.208 76.0139 164.108 76.2055 163.947C77.4623 162.892 79.1385 161.353 81.2343 159.329C83.4995 157.143 85.1708 155.598 86.248 154.694C86.5233 154.463 86.8361 154.374 87.1864 154.427C87.5587 154.482 87.8654 154.653 88.1064 154.94C88.2671 155.131 88.4072 155.432 88.5266 155.842C88.6236 156.127 88.6771 156.276 88.6871 156.288C85.6708 158.819 81.1212 162.841 75.0381 168.353L66.042 176.483C65.7069 176.764 65.3321 176.865 64.9177 176.784C64.5033 176.703 64.1505 176.489 63.8592 176.142C63.1562 175.304 64.8215 173.193 68.8552 169.809L70.4682 168.486C70.5859 168.407 70.7645 168.268 71.0039 168.067ZM94.3633 188.577C93.9077 188.714 93.3327 189.074 92.6385 189.657L92.1897 190.033C91.3877 190.706 90.3981 191.496 89.2208 192.402C88.0435 193.308 87.042 194.108 86.2161 194.801C84.5284 196.217 84.031 197.338 84.724 198.164L85.3324 198.816C85.5352 199.034 85.7772 199.31 86.0585 199.645C87.1632 200.962 87.3566 201.921 86.6384 202.524C86.387 202.735 86.0762 202.802 85.7058 202.725C85.3455 202.66 85.0218 202.493 84.7348 202.224C84.2688 201.085 83.4935 199.87 82.4088 198.577C81.86 198.385 81.3947 198.061 81.0131 197.606C80.7821 197.331 80.7018 196.98 80.7724 196.554C80.853 196.14 81.043 195.807 81.3422 195.556C83.2932 193.919 86.0995 191.696 89.7611 188.889C93.3987 186.102 96.199 183.885 98.162 182.238L98.4313 182.012C99.8428 180.583 100.932 179.547 101.698 178.904C104.02 176.955 105.537 176.406 106.25 177.256C106.461 177.507 106.552 177.798 106.523 178.128C106.505 178.47 106.37 178.747 106.118 178.958C105.771 179.249 105.269 179.599 104.612 180.007C103.955 180.416 103.454 180.765 103.106 181.057C102.125 181.88 100.668 183.134 98.7349 184.817C96.814 186.49 95.3568 187.743 94.3633 188.577ZM115.879 202.404C114.994 203.391 113.965 204.377 112.792 205.361L112.522 205.587L110.47 207.37L108.417 209.154C101.367 215.07 96.4713 216.394 93.7294 213.126C93.177 212.468 92.8724 211.703 92.8154 210.833C92.7584 209.963 92.9475 209.07 93.3825 208.155C94.2483 206.245 95.4995 204.43 97.1361 202.71C98.6411 201.101 100.154 199.658 101.674 198.383C101.973 198.132 102.223 197.932 102.425 197.783C102.627 197.634 102.853 197.454 103.104 197.243C103.224 197.143 103.269 197.075 103.239 197.039L103.903 196.481C104.094 196.321 104.631 195.891 105.513 195.192C105.896 194.87 106.23 194.6 106.516 194.381C107.184 193.841 107.791 193.372 108.335 192.976C108.89 192.592 109.621 192.102 110.527 191.505C111.258 191.014 111.935 190.619 112.561 190.318C113.198 190.008 113.888 189.725 114.631 189.468C115.273 189.236 115.835 189.152 116.317 189.216C116.811 189.271 117.199 189.465 117.48 189.8C118.304 190.782 118.868 191.818 119.171 192.91C119.475 194.001 119.531 195.076 119.338 196.135C119.14 197.138 118.738 198.179 118.134 199.257C117.539 200.347 116.787 201.396 115.879 202.404ZM117.494 194.776C117.436 194.05 117.17 193.406 116.698 192.843C115.995 192.005 115.056 191.845 113.879 192.363C113.326 192.603 112.801 192.89 112.306 193.224C111.823 193.548 111.277 193.966 110.666 194.478C110.199 194.87 109.809 195.207 109.496 195.49C109.183 195.773 108.859 196.056 108.524 196.337C108.225 196.588 107.631 197.035 106.743 197.678C105.855 198.321 105.267 198.764 104.98 199.005C104.094 199.748 102.824 200.895 101.168 202.448C99.4055 204.09 97.8169 205.831 96.4027 207.67C95.7035 208.563 95.2341 209.365 94.9945 210.076C94.7768 210.789 94.8237 211.331 95.135 211.702C95.4966 212.133 96.0016 212.382 96.65 212.45C97.3204 212.52 98.0573 212.401 98.8605 212.094C100.455 211.491 102.031 210.647 103.59 209.563C104.973 208.586 106.108 207.726 106.994 206.983C108.035 206.109 109.406 204.826 111.107 203.134C112.941 201.309 114.289 200.035 115.151 199.312L115.797 198.77C116.376 198.244 116.818 197.628 117.123 196.923C117.441 196.207 117.565 195.492 117.494 194.776ZM114.004 222.885C113.11 223.838 112.522 224.474 112.239 224.794C115.454 223.034 119.92 220.419 125.636 216.949C131.06 213.641 134.415 211.611 135.701 210.859L136.394 211.685C136.575 211.9 136.652 212.162 136.625 212.47C136.62 212.78 136.51 213.026 136.294 213.207C135.432 213.93 134.402 214.61 133.204 215.249C132.028 215.889 130.545 216.613 128.755 217.421C127.253 218.111 126.152 218.658 125.451 219.062C124.762 219.456 123.696 220.167 122.253 221.194C120.609 222.37 119.098 223.414 117.72 224.325C116.343 225.236 114.931 226.105 113.483 226.932C111.86 227.866 110.455 228.453 109.27 228.693C108.106 228.935 107.278 228.763 106.786 228.176L106.77 227.027C109.583 224.666 112.271 221.963 114.833 218.915C117.408 215.857 120.407 211.933 123.832 207.142C124.085 206.787 124.366 206.357 124.677 205.852C125.634 204.294 126.322 203.339 126.741 202.988C126.968 202.797 127.241 202.721 127.559 202.76C127.887 202.811 128.147 202.95 128.338 203.178C128.629 203.525 128.604 204.127 128.263 204.984C127.95 205.778 127.406 206.734 126.631 207.853C125.869 208.962 124.888 210.284 123.689 211.821C122.219 213.666 119.954 216.291 116.895 219.694C116.169 220.507 115.205 221.571 114.004 222.885ZM144.435 224.549C144.638 225.277 144.589 225.766 144.29 226.017C144.039 226.228 143.726 226.317 143.352 226.284C142.989 226.242 142.618 226.115 142.237 225.904C141.664 224.468 141.119 223.344 140.602 222.534C140.118 223.001 139.606 223.461 139.067 223.913C138.349 224.516 137.449 225.23 136.368 226.056C135.025 227.081 134.12 227.789 133.653 228.181L133.169 228.771L133.702 229.333C133.885 229.526 134.092 229.761 134.323 230.036C135.317 231.221 135.479 232.095 134.809 232.657C134.545 232.878 134.217 232.96 133.822 232.904C133.45 232.849 133.123 232.654 132.842 232.319C132.541 231.96 132.273 231.593 132.04 231.217L131.257 230.284C130.383 231.139 129.486 231.953 128.564 232.726C127.678 233.47 126.551 234.375 125.182 235.442C123.48 236.768 122.342 237.672 121.768 238.154C120.391 239.309 119.723 239.911 119.763 239.958L120.826 241.116L122.128 242.594C122.911 243.528 123.004 244.246 122.405 244.748C122.058 245.039 121.664 245.105 121.223 244.944C120.793 244.795 120.392 244.5 120.02 244.057L117.414 240.951C117.133 240.616 116.995 240.221 117.002 239.767C117.006 239.335 117.159 238.982 117.46 238.709L118.43 237.895C118.693 237.674 118.933 237.463 119.151 237.26L119.893 236.576C120.288 236.245 121.047 235.557 122.169 234.513C123.28 233.479 124.039 232.791 124.446 232.449C125.799 231.314 127.623 229.855 129.92 228.071C132.216 226.286 134.041 224.827 135.394 223.692C135.657 223.471 136.152 223.004 136.88 222.291C137.502 221.647 137.987 221.179 138.334 220.888C140.069 219.432 141.369 219.218 142.233 220.247C142.625 220.714 143.039 221.366 143.476 222.203C143.935 223.041 144.255 223.824 144.435 224.549ZM131.273 251.014C131.903 250.913 132.378 251.055 132.7 251.438C133.413 252.288 133.123 253.255 131.83 254.34C131.244 254.832 130.412 255.214 129.335 255.486C128.245 255.767 127.15 255.86 126.05 255.764C124.927 255.666 124.12 255.323 123.627 254.737C123.497 254.581 123.434 254.409 123.44 254.221C123.443 254.055 123.517 253.912 123.66 253.791C123.947 253.55 124.342 253.474 124.845 253.562C125.409 253.578 126.106 253.412 126.935 253.063C127.764 252.714 128.56 252.301 129.322 251.825C130.015 251.386 130.665 251.116 131.273 251.014ZM-13.6554 194.16C-14.1777 193.537 -14.2618 192.914 -13.9079 192.291L-13.8719 192.261C-13.9982 192.183 -14.3619 192.029 -14.9628 191.799C-15.5317 191.583 -15.9846 191.372 -16.3214 191.165C-16.6582 190.958 -16.9471 190.711 -17.1882 190.424C-17.7405 189.765 -18.1501 189.058 -18.4167 188.303C-18.6733 187.56 -18.7909 186.812 -18.7694 186.06C-18.7676 185.405 -18.638 184.685 -18.3806 183.898C-18.1113 183.1 -17.7718 182.326 -17.3622 181.574C-17.0302 180.949 -16.5705 180.257 -15.9829 179.499C-15.3732 178.743 -14.7684 178.042 -14.1685 177.395C-13.6662 176.852 -13.0571 176.228 -12.3413 175.526C-11.6034 174.825 -10.9891 174.269 -10.4984 173.857C-10.1972 173.584 -9.65165 173.116 -8.86167 172.453L-7.60488 171.398C-7.20796 171.045 -6.72822 170.632 -6.16566 170.16C-4.99265 169.176 -3.69472 168.158 -2.27187 167.107C-0.920835 166.116 0.525615 165.239 2.06748 164.476C2.87838 164.081 3.62055 163.774 4.29401 163.556C4.98948 163.339 5.70621 163.197 6.44419 163.128C7.19415 163.05 7.89044 163.077 8.53309 163.211C9.1877 163.335 9.83674 163.586 10.4802 163.964C11.1017 164.34 11.6786 164.845 12.2109 165.479C13.0646 166.497 13.1443 167.297 12.4501 167.879C12.1987 168.09 11.9089 168.17 11.5806 168.119C11.2643 168.058 10.9957 167.896 10.7747 167.633C10.7044 167.549 10.5887 167.35 10.4276 167.037C10.2665 166.723 10.1458 166.519 10.0654 166.423C9.68378 165.968 9.19364 165.676 8.59503 165.546C8.00838 165.406 7.34028 165.436 6.59074 165.637C5.76127 165.863 4.96096 166.137 4.18983 166.458C3.41869 166.779 2.60992 167.213 1.76353 167.76C0.661512 168.439 -0.230833 169.005 -0.913505 169.455C-1.58613 169.918 -2.30953 170.453 -3.08369 171.062C-4.23702 171.948 -5.41815 172.898 -6.62706 173.913L-7.63249 174.756C-7.97768 175.026 -8.40762 175.376 -8.92231 175.808C-9.66441 176.431 -10.2938 176.969 -10.8104 177.423C-11.3169 177.889 -11.8752 178.439 -12.4853 179.073C-13.1671 179.768 -13.7451 180.416 -14.2192 181.018C-14.6713 181.621 -15.0942 182.272 -15.4879 182.97C-15.9056 183.687 -16.1754 184.362 -16.2973 184.995C-16.4192 185.627 -16.409 186.272 -16.2667 186.927C-16.1364 187.593 -15.8353 188.207 -15.3632 188.77C-14.4493 189.859 -13.1763 190.331 -11.5443 190.185C-10.7404 189.49 -9.96475 188.738 -9.21728 187.927C-8.45977 187.128 -8.00074 186.508 -7.84018 186.068L-8.39409 185.553C-8.72319 185.258 -8.98817 184.991 -9.18904 184.752C-9.89209 183.914 -9.8965 183.204 -9.20227 182.621C-8.97486 182.43 -8.6719 182.39 -8.29342 182.501C-7.90296 182.602 -7.50012 182.814 -7.0849 183.139C-6.31664 183.739 -5.72661 184.284 -5.31483 184.775C-4.90304 185.265 -4.76717 185.804 -4.90723 186.391C-5.04728 186.977 -5.39858 187.507 -5.96115 187.979C-6.69128 188.591 -7.68103 189.636 -8.93039 191.113C-10.2257 192.608 -11.2145 193.641 -11.8967 194.214C-12.184 194.455 -12.4937 194.572 -12.8258 194.565C-13.1579 194.558 -13.4345 194.423 -13.6554 194.16ZM15.3637 195.234C4.48351 204.364 -2.28235 207.349 -4.93385 204.189C-5.42599 203.602 -5.73624 202.965 -5.86461 202.278C-5.99298 201.59 -5.9383 200.901 -5.70057 200.212C-5.44894 199.491 -5.12818 198.804 -4.73828 198.151C-4.33641 197.487 -3.82256 196.811 -3.19671 196.123C-2.10446 194.921 -0.822222 193.702 0.650019 192.467C3.53232 189.946 6.73896 187.204 10.2699 184.242C11.1198 183.528 12.2856 182.499 13.7675 181.154L15.3949 179.666C16.1004 179.461 16.5787 179.509 16.8298 179.808C17.0709 180.095 17.0654 180.538 16.8133 181.137C16.5613 181.736 16.1779 182.252 15.6632 182.684L5.66277 191.075C4.789 191.808 3.56564 192.988 1.9927 194.614C0.34986 196.278 -0.878519 197.451 -1.69244 198.134C-3.48786 199.641 -3.73274 201.172 -2.42707 202.728C-0.960714 204.476 6.36164 199.82 19.54 188.762L21.6047 187.03L21.9279 186.759C22.0016 186.676 22.0924 186.59 22.2001 186.5C22.4993 186.249 22.7751 186.14 23.0272 186.173C23.2914 186.196 23.5842 186.399 23.9056 186.782C24.1667 187.093 24.2819 187.425 24.251 187.777C24.2322 188.119 24.1181 188.409 23.9089 188.646C23.6417 188.911 23.3645 189.164 23.0772 189.405C22.5984 189.806 21.9409 190.287 21.1045 190.846C20.2682 191.405 19.6226 191.875 19.1677 192.257C18.7608 192.598 18.232 193.001 17.5814 193.465C16.7771 194.038 16.2373 194.44 15.962 194.671C15.8423 194.772 15.7456 194.863 15.6718 194.945C15.5861 195.038 15.4834 195.134 15.3637 195.234ZM19.6322 216.802C17.8246 219.461 16.7628 221.076 16.4467 221.648C22.0532 217.779 28.4772 212.807 35.7187 206.731C35.8863 206.59 36.0428 206.449 36.1884 206.306L36.661 205.848C37.3911 205.236 38.0123 205.235 38.5245 205.845C38.8057 206.18 38.884 206.553 38.7594 206.964C38.6347 207.374 38.3689 207.75 37.962 208.092L35.1791 210.427C32.9925 212.221 30.3648 214.303 27.296 216.674C24.2372 219.057 21.4554 221.126 18.9506 222.881C16.4678 224.638 14.9345 225.558 14.3506 225.64C13.5746 225.128 13.1113 224.783 12.9607 224.603C12.6995 224.292 12.5865 223.999 12.6216 223.725C12.6686 223.441 12.8485 223.096 13.1612 222.691C13.438 222.316 13.6172 222.043 13.6986 221.873L13.7855 221.831L13.8753 221.755C14.4378 221.283 15.6105 219.606 17.3932 216.723C19.176 213.84 21.0448 210.671 22.9996 207.215C24.9645 203.771 26.3573 201.226 27.1779 199.579L8.66719 215.111C8.66719 215.111 8.62358 215.229 8.53636 215.466C8.41557 215.832 8.27737 216.081 8.12177 216.211C7.81056 216.472 7.44583 216.585 7.02759 216.548C6.61938 216.523 6.28974 216.361 6.03865 216.062C5.36573 215.26 5.77736 214.232 7.27354 212.976L13.5453 207.652L19.8171 202.328C20.5831 201.686 21.7564 200.762 23.3367 199.559C24.9291 198.345 26.1023 197.422 26.8564 196.789C28.0054 195.825 29.2858 195.515 30.6974 195.861L30.464 196.056C30.6042 196.102 30.7094 196.167 30.7797 196.25C31.2618 196.825 30.8769 198.372 29.6251 200.891C28.6435 202.857 27.4781 204.895 26.1288 207.006C24.7896 209.13 23.1018 211.688 21.0654 214.682L19.6322 216.802ZM35.0591 235.187C33.2515 237.846 32.1897 239.461 31.8736 240.033C37.4801 236.164 43.9041 231.192 51.1456 225.116C51.3132 224.975 51.4698 224.834 51.6153 224.691L52.0879 224.233C52.818 223.621 53.4392 223.62 53.9514 224.23C54.2327 224.565 54.3109 224.938 54.1863 225.349C54.0617 225.759 53.7958 226.135 53.3889 226.477L50.606 228.812C48.4194 230.606 45.7917 232.688 42.7229 235.059C39.6641 237.442 36.8823 239.511 34.3775 241.267C31.8947 243.023 30.3614 243.943 29.7775 244.025C29.0015 243.513 28.5382 243.168 28.3876 242.988C28.1264 242.677 28.0134 242.384 28.0485 242.11C28.0955 241.826 28.2754 241.481 28.5881 241.076C28.8649 240.701 29.0441 240.428 29.1255 240.258L29.2124 240.216L29.3022 240.14C29.8647 239.668 31.0374 237.991 32.8201 235.108C34.6029 232.225 36.4717 229.056 38.4265 225.6C40.3914 222.156 41.7842 219.611 42.6048 217.964L24.0941 233.496C24.0941 233.496 24.0505 233.614 23.9633 233.851C23.8425 234.217 23.7043 234.466 23.5487 234.596C23.2375 234.857 22.8727 234.97 22.4545 234.933C22.0463 234.908 21.7166 234.747 21.4656 234.447C20.7926 233.645 21.2043 232.617 22.7004 231.361L28.9722 226.037L35.244 220.714C36.0101 220.071 37.1833 219.147 38.7636 217.944C40.356 216.73 41.5292 215.807 42.2833 215.174C43.4323 214.21 44.7127 213.9 46.1243 214.246L45.8909 214.442C46.0311 214.487 46.1363 214.552 46.2066 214.636C46.6887 215.21 46.3038 216.757 45.052 219.276C44.0704 221.242 42.905 223.28 41.5557 225.391C40.2165 227.515 38.5287 230.073 36.4923 233.067L35.0591 235.187ZM42.1504 257.385C42.9285 256.732 44.0688 255.551 45.5714 253.841L46.2409 253.035L43.7363 248.956C42.8594 249.345 41.5515 250.096 39.8128 251.208C38.4733 252.067 37.4815 252.501 36.8373 252.511C36.4272 252.509 36.0966 252.358 35.8455 252.059C35.5944 251.759 35.4642 251.41 35.4548 251.01C35.4455 250.61 35.5785 250.294 35.8538 250.063C35.8897 250.033 35.9646 250.001 36.0785 249.966L36.2523 249.882C43.9601 246.208 51.2017 242.223 57.9771 237.924C58.5439 237.53 59.0758 237.156 59.5727 236.8C60.5326 236.096 61.3221 235.566 61.941 235.21C62.572 234.844 63.1054 234.641 63.5414 234.602L64.5809 235.84C64.8822 236.2 65.0496 236.569 65.0828 236.949C65.1281 237.319 65.0011 237.63 64.7019 237.881C62.8347 239.447 60.2747 242.024 57.0219 245.61C53.7112 249.224 51.2718 251.689 49.7038 253.005C49.5003 253.176 49.1785 253.558 48.7384 254.152C48.2983 254.745 47.9765 255.127 47.773 255.298C47.5097 255.519 46.88 256.251 45.8839 257.495C44.9376 258.677 44.273 259.428 43.89 259.75L43.8541 259.78C43.3154 260.232 42.7976 260.32 42.3005 260.043C41.8385 259.493 41.5818 259.004 41.5303 258.578C41.4889 258.164 41.6956 257.767 42.1504 257.385ZM45.2214 247.955C45.2995 248.583 46.011 249.832 47.3557 251.702C47.6545 251.328 48.0792 250.911 48.6298 250.449C49.7909 249.475 50.9656 248.407 52.154 247.247C53.3544 246.077 54.8327 244.581 56.5891 242.761C57.8968 241.378 59.055 240.181 60.0639 239.172C52.9656 243.231 48.0181 246.159 45.2214 247.955ZM61.5304 258.348C61.0747 258.486 60.4998 258.846 59.8056 259.429L59.3567 259.805C58.5548 260.478 57.5651 261.268 56.3879 262.174C55.2106 263.08 54.209 263.88 53.3831 264.573C51.6954 265.989 51.1981 267.11 51.8911 267.936L52.4995 268.588C52.7023 268.805 52.9443 269.082 53.2255 269.417C54.3303 270.733 54.5236 271.693 53.8054 272.296C53.5541 272.507 53.2432 272.574 52.8729 272.497C52.5125 272.432 52.1889 272.265 51.9019 271.996C51.4359 270.857 50.6605 269.642 49.5758 268.349C49.027 268.157 48.5618 267.833 48.1801 267.378C47.9491 267.103 47.8689 266.752 47.9395 266.326C48.0201 265.911 48.21 265.579 48.5093 265.328C50.4603 263.691 53.2666 261.468 56.9281 258.661C60.5657 255.874 63.366 253.657 65.329 252.01L65.5983 251.784C67.0099 250.354 68.0987 249.318 68.8647 248.676C71.1868 246.727 72.7044 246.178 73.4175 247.028C73.6284 247.279 73.7194 247.57 73.6905 247.9C73.6717 248.242 73.5366 248.519 73.2852 248.73C72.9381 249.021 72.4361 249.371 71.7793 249.779C71.1225 250.187 70.6206 250.537 70.2735 250.829C69.292 251.652 67.8348 252.905 65.9019 254.588C63.981 256.261 62.5239 257.515 61.5304 258.348ZM76.9142 295.861C77.8774 296.134 78.4795 296.414 78.7206 296.701C79.0118 297.048 79.1276 297.563 79.0679 298.246C78.625 298.617 78.1437 298.858 77.6239 298.968C77.1142 299.09 76.615 299.09 76.1265 298.97C75.66 298.851 75.1841 298.649 74.699 298.362C74.2139 298.076 73.7707 297.754 73.3694 297.398C72.9379 297.005 72.5715 296.629 72.2702 296.27C71.6877 295.576 71.317 294.806 71.158 293.96C70.9872 293.125 71.0063 292.272 71.2154 291.403C71.4048 290.632 71.774 289.772 72.323 288.822C72.8839 287.862 73.5259 286.925 74.249 286.012C74.8725 285.224 75.6588 284.35 76.6078 283.391C77.5688 282.421 78.524 281.518 79.4734 280.68C80.3051 279.921 81.2596 279.09 82.3368 278.186C83.2345 277.432 84.0176 276.786 84.6859 276.245C85.3543 275.705 86.0475 275.133 86.7657 274.531C88.1302 273.386 89.3316 272.52 90.37 271.935C90.7047 271.531 91.0576 271.174 91.4286 270.863C92.4101 270.039 93.4828 269.567 94.6468 269.447C95.8327 269.329 97.0008 269.542 98.151 270.087C99.3112 270.643 100.353 271.472 101.277 272.573C101.609 272.968 101.862 273.428 102.038 273.954C102.224 274.491 102.285 275.001 102.22 275.483C102.178 275.968 101.983 276.355 101.636 276.647C101.385 276.858 101.096 276.927 100.77 276.854C100.465 276.783 100.193 276.604 99.9516 276.316C99.7407 276.065 99.5617 275.767 99.4144 275.421C99.2672 275.075 99.2293 274.811 99.3007 274.629L99.2828 274.644L98.8609 274.141L98.9507 274.066C98.1774 273.144 97.3471 272.556 96.46 272.301C96.1016 272.214 95.7034 272.202 95.2655 272.263C94.8276 272.325 94.4078 272.432 94.0062 272.585C93.6846 272.713 93.2832 272.927 92.8021 273.229C92.331 273.542 91.9229 273.834 91.5777 274.103C91.3642 274.262 90.9641 274.587 90.3776 275.079C90.0904 275.321 89.6805 275.695 89.1481 276.203C88.6276 276.701 88.2238 277.07 87.9365 277.311C87.6492 277.552 87.1791 277.855 86.5262 278.219C85.8612 278.594 85.3851 278.902 85.0979 279.143L84.2181 279.881C82.9733 280.925 81.6877 282.055 80.3615 283.27C79.6036 283.947 78.9495 284.577 78.3993 285.161C77.8592 285.757 77.2484 286.463 76.567 287.28C75.9832 287.994 75.5144 288.663 75.1604 289.286C74.8164 289.922 74.5296 290.601 74.3 291.324C73.8724 292.662 74.0855 293.839 74.9392 294.857C75.2907 295.276 75.949 295.61 76.9142 295.861ZM87.3731 313.795C87.063 313.79 86.8075 313.668 86.6066 313.429C86.1748 312.914 86.3555 311.926 87.1487 310.465C87.8941 309.044 88.8774 307.566 90.0986 306.031L91.1265 304.741C94.0371 301.136 95.6654 299.005 96.0112 298.347L95.6346 297.898C94.9164 298.501 94.2591 299.042 93.6625 299.522C93.066 300.003 92.3847 300.564 91.6186 301.207C88.3749 303.929 86.0153 306.306 84.5398 308.34L83.2058 308.756L82.347 307.732L82.4789 306.796L84.9688 304.768C87.0395 303.03 90.2996 300.121 94.749 296.041C99.0568 292.059 102.318 289.139 104.532 287.281C105.693 286.307 106.615 286.227 107.298 287.041C108.021 287.902 108.514 288.805 108.775 289.748C109.058 290.694 109.072 291.61 108.817 292.497C108.574 293.374 108.046 294.154 107.232 294.837L104.646 297.006C104.299 297.298 103.837 297.573 103.26 297.833C102.682 298.093 102.166 298.292 101.71 298.43L99.794 298.844L98.2347 299.174L95.3212 302.812C93.7711 304.684 92.5331 306.283 91.6074 307.611C90.6936 308.928 89.9367 310.226 89.3369 311.505L89.0659 312.13C88.9251 312.472 88.79 312.749 88.6606 312.959C88.5433 313.16 88.4008 313.33 88.2332 313.471C87.9699 313.692 87.6832 313.8 87.3731 313.795ZM102.414 295.331C103.368 294.815 104.157 294.296 104.779 293.774C105.234 293.392 105.602 293.053 105.883 292.756C106.176 292.449 106.469 292.081 106.762 291.652C107.044 291.211 107.167 290.761 107.129 290.303C107.114 289.847 106.931 289.399 106.581 288.958L106.321 289.084C106.149 289.147 106.027 289.209 105.955 289.269C104.734 290.293 103.306 291.532 101.671 292.986C100.023 294.45 98.6608 295.634 97.5836 296.538C98.0764 296.737 98.7665 296.708 99.6539 296.453C100.551 296.21 101.471 295.836 102.414 295.331ZM120.25 304.627C120.452 305.354 120.404 305.844 120.105 306.095C119.853 306.306 119.54 306.395 119.166 306.362C118.804 306.319 118.432 306.192 118.052 305.982C117.479 304.545 116.934 303.422 116.417 302.611C115.932 303.079 115.421 303.539 114.882 303.991C114.164 304.593 113.264 305.308 112.182 306.134C110.839 307.158 109.935 307.867 109.468 308.258L108.984 308.848L109.517 309.411C109.699 309.604 109.906 309.838 110.137 310.114C111.132 311.299 111.294 312.172 110.623 312.735C110.36 312.956 110.031 313.038 109.637 312.981C109.265 312.926 108.938 312.732 108.657 312.396C108.355 312.037 108.088 311.67 107.855 311.295L107.071 310.361C106.198 311.216 105.3 312.031 104.379 312.804C103.493 313.547 102.366 314.452 100.997 315.519C99.2949 316.845 98.1567 317.75 97.5821 318.232C96.2057 319.387 95.5375 319.988 95.5777 320.036L96.6409 321.194L97.9423 322.672C98.7257 323.605 98.8182 324.323 98.2197 324.825C97.8726 325.117 97.4787 325.182 97.038 325.022C96.6074 324.873 96.2063 324.577 95.8347 324.134L93.2284 321.028C92.9471 320.693 92.8098 320.298 92.8162 319.844C92.8207 319.412 92.9736 319.06 93.2748 318.786L94.2443 317.973C94.5076 317.752 94.748 317.54 94.9653 317.337L95.7072 316.654C96.1022 316.322 96.8611 315.634 97.9839 314.59C99.0947 313.556 99.8536 312.868 100.261 312.527C101.613 311.392 103.438 309.932 105.734 308.148C108.031 306.364 109.856 304.904 111.208 303.769C111.471 303.548 111.967 303.081 112.695 302.369C113.317 301.724 113.801 301.257 114.148 300.965C115.884 299.509 117.184 299.296 118.047 300.325C118.439 300.792 118.853 301.444 119.29 302.28C119.749 303.119 120.069 303.901 120.25 304.627ZM109.221 337.317C109.999 336.664 111.14 335.483 112.642 333.773L113.312 332.967L110.807 328.888C109.93 329.277 108.622 330.028 106.884 331.14C105.544 331.999 104.552 332.433 103.908 332.443C103.498 332.441 103.167 332.29 102.916 331.991C102.665 331.691 102.535 331.342 102.526 330.942C102.516 330.542 102.649 330.226 102.925 329.995C102.961 329.965 103.035 329.933 103.149 329.898L103.323 329.814C111.031 326.14 118.273 322.155 125.048 317.856C125.615 317.462 126.147 317.087 126.644 316.732C127.603 316.028 128.393 315.498 129.012 315.142C129.643 314.776 130.176 314.573 130.612 314.534L131.652 315.772C131.953 316.131 132.12 316.501 132.154 316.881C132.199 317.251 132.072 317.561 131.773 317.813C129.906 319.379 127.346 321.956 124.093 325.542C120.782 329.156 118.343 331.621 116.775 332.937C116.571 333.108 116.249 333.49 115.809 334.084C115.369 334.677 115.047 335.059 114.844 335.23C114.581 335.451 113.951 336.183 112.955 337.427C112.009 338.609 111.344 339.36 110.961 339.682L110.925 339.712C110.386 340.164 109.868 340.251 109.371 339.975C108.909 339.424 108.653 338.936 108.601 338.51C108.56 338.096 108.766 337.698 109.221 337.317ZM112.292 327.887C112.37 328.515 113.082 329.763 114.427 331.633C114.725 331.26 115.15 330.843 115.701 330.381C116.862 329.407 118.036 328.339 119.225 327.179C120.425 326.008 121.904 324.513 123.66 322.693C124.968 321.31 126.126 320.113 127.135 319.104C120.036 323.163 115.089 326.091 112.292 327.887ZM119.166 346.871L120.536 345.66L121.838 344.659C122.045 344.322 124.589 341.861 129.471 337.275C134.365 332.679 137.479 329.791 138.813 328.61C137.664 327.167 137.052 326.121 136.975 325.471C136.932 325.079 137.036 324.778 137.287 324.567C137.503 324.386 137.794 324.356 138.16 324.477C138.527 324.598 138.826 324.796 139.057 325.071C139.519 325.622 140.163 326.499 140.989 327.702C141.763 328.868 142.401 329.75 142.904 330.348C142.994 330.456 143.08 330.547 143.163 330.621L143.419 330.926C144.061 331.692 144.09 332.321 143.503 332.813C143.216 333.054 142.871 333.129 142.469 333.039C142.076 332.96 141.744 332.759 141.473 332.436C141.262 332.185 141.038 331.832 140.8 331.379L140.308 330.537L140.117 330.637L139.871 330.782C137.477 332.791 134.171 335.912 129.952 340.145C125.733 344.379 122.421 347.505 120.015 349.524C119.728 349.765 119.36 349.849 118.911 349.777C118.485 349.706 118.136 349.509 117.865 349.186L117.777 348.097L119.166 346.871ZM136.993 355.318C135.104 357.005 133.83 358.124 133.172 358.677L132.077 359.596L131.556 360.033C131.39 360.151 131.218 360.286 131.038 360.437L131.445 360.921C131.586 361.089 131.727 361.245 131.87 361.391C132.012 361.537 132.179 361.723 132.37 361.951C133.213 362.956 133.33 363.715 132.72 364.227C132.408 364.488 132.034 364.588 131.595 364.528C131.179 364.469 130.835 364.278 130.564 363.955L129.208 362.339C128.244 361.19 127.67 360.458 127.487 360.143L127.075 359.724C126.341 358.85 126.25 358.182 126.801 357.72C127.016 357.539 127.286 357.435 127.61 357.408C127.946 357.371 128.18 357.419 128.313 357.553L129.186 358.594L129.45 358.434L129.731 358.259C130.713 357.436 131.982 356.299 133.54 354.849C135.097 353.4 136.361 352.268 137.331 351.455C138.252 350.681 139.647 349.572 141.514 348.127C143.576 346.5 144.965 345.385 145.683 344.782C147.132 343.567 148.398 342.402 149.483 341.288L148.895 340.588C148.775 340.445 148.653 340.312 148.531 340.19C148.408 340.069 148.282 339.93 148.151 339.774C147.83 339.391 147.66 339.044 147.643 338.732C147.626 338.42 147.803 338.108 148.174 337.797C148.737 337.325 149.525 337.693 150.54 338.902L154.216 343.283C154.658 343.81 154.902 344.247 154.949 344.595C154.983 344.975 154.898 345.25 154.694 345.421C154.467 345.612 154.167 345.68 153.795 345.625C153.422 345.57 153.121 345.405 152.89 345.13L151.308 343.245C150.311 344.244 149.214 345.246 148.017 346.251C147.419 346.753 146.226 347.702 144.441 349.099C142.824 350.333 141.621 351.281 140.831 351.944C140.161 352.506 138.881 353.631 136.993 355.318ZM161.747 365.968C160.862 366.955 159.833 367.941 158.66 368.925L158.391 369.151L156.338 370.935L154.286 372.718C147.236 378.634 142.34 379.958 139.598 376.69C139.045 376.032 138.741 375.268 138.684 374.398C138.627 373.528 138.816 372.635 139.251 371.719C140.117 369.81 141.368 367.995 143.004 366.275C144.509 364.665 146.022 363.223 147.542 361.947C147.841 361.696 148.092 361.496 148.293 361.347C148.495 361.199 148.721 361.019 148.973 360.808C149.092 360.707 149.137 360.639 149.107 360.603L149.771 360.046C149.963 359.885 150.5 359.455 151.381 358.756C151.764 358.435 152.099 358.164 152.384 357.945C153.052 357.405 153.659 356.937 154.204 356.541C154.759 356.157 155.489 355.666 156.395 355.069C157.126 354.578 157.804 354.183 158.429 353.883C159.066 353.572 159.756 353.289 160.5 353.032C161.141 352.8 161.703 352.716 162.185 352.781C162.68 352.835 163.067 353.03 163.349 353.365C164.172 354.346 164.736 355.383 165.04 356.474C165.343 357.565 165.399 358.64 165.207 359.699C165.008 360.702 164.606 361.743 164.002 362.821C163.407 363.912 162.656 364.961 161.747 365.968ZM163.363 358.34C163.304 357.614 163.039 356.97 162.567 356.407C161.864 355.57 160.924 355.41 159.747 355.928C159.194 356.168 158.67 356.455 158.175 356.788C157.692 357.112 157.145 357.53 156.535 358.042C156.068 358.434 155.678 358.772 155.365 359.055C155.051 359.338 154.727 359.62 154.392 359.901C154.093 360.152 153.499 360.599 152.611 361.243C151.723 361.886 151.135 362.328 150.848 362.569C149.962 363.312 148.692 364.46 147.037 366.012C145.274 367.654 143.685 369.395 142.271 371.235C141.572 372.127 141.102 372.929 140.863 373.64C140.645 374.353 140.692 374.895 141.003 375.266C141.365 375.697 141.87 375.946 142.518 376.014C143.189 376.084 143.926 375.965 144.729 375.659C146.323 375.055 147.9 374.211 149.459 373.128C150.842 372.151 151.976 371.291 152.862 370.548C153.903 369.674 155.274 368.391 156.975 366.698C158.809 364.874 160.157 363.6 161.019 362.877L161.666 362.334C162.244 361.808 162.686 361.192 162.992 360.487C163.309 359.772 163.433 359.056 163.363 358.34ZM164.35 389.27C162.542 391.929 161.48 393.544 161.164 394.115C166.771 390.247 173.195 385.275 180.436 379.199C180.604 379.058 180.76 378.916 180.906 378.774L181.379 378.316C182.109 377.703 182.73 377.702 183.242 378.313C183.523 378.648 183.602 379.021 183.477 379.431C183.352 379.842 183.087 380.218 182.68 380.559L179.897 382.894C177.71 384.688 175.082 386.771 172.014 389.142C168.955 391.525 166.173 393.594 163.668 395.349C161.185 397.106 159.652 398.026 159.068 398.108C158.292 397.596 157.829 397.251 157.678 397.071C157.417 396.76 157.304 396.467 157.339 396.193C157.386 395.909 157.566 395.564 157.879 395.159C158.156 394.784 158.335 394.511 158.416 394.341L158.503 394.298L158.593 394.223C159.155 393.751 160.328 392.074 162.111 389.191C163.894 386.308 165.762 383.138 167.717 379.683C169.682 376.239 171.075 373.694 171.896 372.046L153.385 387.579C153.385 387.579 153.341 387.697 153.254 387.933C153.133 388.3 152.995 388.548 152.839 388.679C152.528 388.94 152.163 389.052 151.745 389.016C151.337 388.991 151.007 388.829 150.756 388.53C150.083 387.728 150.495 386.699 151.991 385.444L158.263 380.12L164.535 374.796C165.301 374.153 166.474 373.23 168.054 372.026C169.647 370.813 170.82 369.889 171.574 369.257C172.723 368.292 174.003 367.983 175.415 368.328L175.182 368.524C175.322 368.57 175.427 368.634 175.497 368.718C175.979 369.293 175.595 370.839 174.343 373.358C173.361 375.324 172.196 377.363 170.846 379.474C169.507 381.597 167.819 384.156 165.783 387.15L164.35 389.27ZM188.455 390.031C187.443 390.453 186.631 390.92 186.02 391.432C185.314 392.025 184.681 392.729 184.122 393.545C183.573 394.373 183.15 395.207 182.855 396.046C182.017 398.28 181.31 400.076 180.737 401.434C180.348 402.332 179.784 403.264 179.045 404.231C178.316 405.209 177.485 406.09 176.551 406.874C175.067 408.119 173.362 408.968 171.437 409.421C170.452 409.656 169.488 409.639 168.547 409.368C167.618 409.087 166.826 408.568 166.171 407.812L166.081 407.888C165.772 407.373 165.617 406.86 165.617 406.35C165.605 405.85 165.771 405.415 166.114 405.046L167.089 404.931C167.318 405.351 167.461 405.618 167.518 405.734C167.715 406.14 167.909 406.456 168.1 406.683C168.482 407.138 169.016 407.374 169.702 407.389C170.388 407.405 171.124 407.236 171.909 406.884C173.341 406.233 174.536 405.505 175.493 404.702C176.307 404.019 177.031 403.167 177.663 402.147C178.318 401.128 178.863 400.039 179.297 398.879L179.603 398.041C180.043 396.815 180.445 395.774 180.808 394.919C181.183 394.053 181.646 393.196 182.197 392.345C182.88 391.263 183.718 390.305 184.711 389.471C185.825 388.537 187.155 387.849 188.702 387.408C189.499 387.167 190.257 387.123 190.976 387.274C191.717 387.428 192.323 387.786 192.795 388.348C193.177 388.803 193.38 389.337 193.404 389.949C193.45 390.563 193.269 391.04 192.862 391.382C192.647 391.563 192.398 391.619 192.116 391.55C191.845 391.47 191.61 391.311 191.409 391.072C191.188 390.808 191.044 390.491 190.976 390.119C190.733 389.854 190.385 389.718 189.931 389.711C189.477 389.705 188.985 389.812 188.455 390.031ZM181.004 429.878L211.858 466.648L248.628 435.794L217.774 399.024L181.004 429.878Z" fill="black"/>
</svg>
